<?xml version="1.0" standalone="no"?>
<!DOCTYPE svg PUBLIC "-//W3C//DTD SVG 20010904//EN"
 "http://www.w3.org/TR/2001/REC-SVG-20010904/DTD/svg10.dtd">
<svg version="1.0" xmlns="http://www.w3.org/2000/svg"
 width="389.000000pt" height="389.000000pt" viewBox="0 0 389.000000 389.000000"
 preserveAspectRatio="xMidYMid meet">

<g transform="translate(0.000000,389.000000) scale(0.100000,-0.100000)"
fill="#000000" stroke="none">
<path d="M1800 3385 c-57 -46 -106 -89 -108 -94 -2 -6 9 -11 25 -11 l28 0 -3
-152 c-3 -213 -3 -211 -64 -248 l-51 -31 7 -71 6 -71 -42 -40 c-25 -24 -87
-62 -153 -93 l-110 -53 590 0 590 0 -65 31 c-125 59 -151 73 -193 109 l-42 37
3 75 2 75 -36 22 c-74 46 -74 46 -74 221 0 87 3 164 6 173 3 9 15 16 25 16 28
0 23 15 -16 44 -20 15 -46 38 -60 52 -13 13 -27 24 -30 24 -4 0 -26 16 -49 35
-24 19 -52 35 -62 35 -10 -1 -66 -39 -124 -85z"/>
<path d="M1140 2362 c-104 -84 -219 -201 -278 -284 -84 -118 -151 -281 -152
-365 l0 -33 130 0 c126 0 130 1 134 23 3 12 12 58 21 102 50 246 150 502 230
586 22 22 24 40 6 39 -3 0 -44 -31 -91 -68z"/>
<path d="M1412 2423 c-21 -8 -108 -146 -154 -243 -71 -147 -153 -417 -146
-478 3 -26 6 -27 63 -30 33 -2 96 -1 141 3 l81 7 6 101 c12 184 61 461 101
576 24 67 22 71 -31 70 -27 0 -54 -3 -61 -6z"/>
<path d="M1666 2422 c-9 -15 -63 -246 -91 -392 -15 -74 -29 -183 -32 -242 l-6
-108 119 -2 c126 -2 164 -1 170 4 7 8 13 166 16 443 l3 300 -87 3 c-47 1 -89
-1 -92 -6z"/>
<path d="M1946 2421 c-4 -5 -3 -174 0 -375 l7 -366 144 0 143 0 0 68 c0 164
-45 492 -84 611 l-21 66 -92 3 c-52 1 -94 -1 -97 -7z"/>
<path d="M2270 2422 c0 -5 9 -35 21 -68 31 -89 67 -290 85 -469 8 -88 18 -170
20 -182 4 -23 7 -23 143 -23 76 0 140 2 143 5 6 7 -12 110 -37 210 -32 125
-112 305 -191 427 -63 98 -75 108 -134 108 -27 0 -50 -4 -50 -8z"/>
<path d="M2530 2424 c0 -3 21 -31 46 -61 86 -106 181 -347 228 -578 l21 -100
132 -3 132 -3 -6 38 c-8 51 -49 165 -86 238 -88 176 -228 330 -399 439 -57 36
-68 41 -68 30z"/>
<path d="M593 1549 c-48 -41 -110 -149 -98 -170 8 -13 2842 -12 2850 1 11 18
-34 85 -99 148 l-65 62 -91 0 c-95 0 -96 -1 -84 -47 5 -18 14 -23 38 -23 45 0
50 -9 20 -33 -22 -17 -25 -26 -21 -54 7 -38 5 -39 -28 -17 -21 14 -26 14 -55
-1 l-31 -16 7 28 c4 15 8 30 10 32 2 2 -10 14 -26 26 -34 25 -30 35 15 35 27
0 33 5 42 35 l11 35 -1173 0 -1174 0 -48 -41z m252 1 c6 -26 11 -30 39 -30 45
0 50 -9 20 -33 -22 -17 -25 -26 -21 -54 7 -38 5 -39 -28 -17 -23 15 -27 15
-51 -1 -32 -21 -36 -17 -25 21 8 27 5 33 -19 49 -35 23 -30 35 15 35 29 0 34
4 40 30 4 17 10 30 15 30 5 0 11 -13 15 -30z m410 0 c6 -26 11 -30 40 -30 45
0 50 -12 15 -35 -25 -17 -27 -22 -18 -47 13 -36 4 -46 -20 -25 -10 10 -25 17
-32 17 -7 0 -22 -7 -32 -17 -24 -21 -33 -11 -20 25 9 25 7 30 -18 47 -35 23
-30 35 15 35 29 0 34 4 40 30 4 17 10 30 15 30 5 0 11 -13 15 -30z m870 0 c6
-26 11 -30 40 -30 43 0 51 -13 19 -31 -23 -12 -25 -18 -20 -51 7 -43 5 -44
-29 -22 -21 14 -26 14 -55 -1 l-31 -16 7 28 c4 15 8 30 10 32 2 2 -10 14 -26
26 -34 25 -30 35 16 35 28 0 33 4 39 30 4 17 10 30 15 30 5 0 11 -13 15 -30z
m-429 -5 c5 -20 12 -25 39 -25 45 0 50 -13 15 -33 -26 -16 -28 -20 -18 -48 13
-38 4 -48 -22 -24 -19 18 -22 18 -55 2 l-35 -17 6 28 c4 15 8 29 10 31 2 2
-10 14 -26 26 -34 25 -30 35 16 35 26 0 33 5 38 25 4 14 11 25 16 25 5 0 12
-11 16 -25z m880 0 c5 -20 12 -25 39 -25 45 0 50 -13 15 -33 -26 -16 -28 -20
-18 -48 13 -38 4 -48 -23 -23 -20 18 -22 18 -51 1 -17 -10 -32 -16 -34 -14 -2
2 0 17 5 33 8 27 5 33 -19 49 -35 23 -30 35 15 35 27 0 34 5 39 25 4 14 11 25
16 25 5 0 12 -11 16 -25z"/>
<path d="M817 1224 c30 -7 35 -39 31 -204 -3 -132 -3 -135 -28 -147 -22 -11
-11 -13 80 -13 120 0 166 10 204 45 47 44 25 113 -46 137 l-29 10 33 17 c58
28 64 104 11 138 -22 15 -52 18 -153 20 -69 1 -115 -1 -103 -3z m193 -34 c47
-47 11 -130 -57 -130 l-33 0 0 75 0 75 35 0 c22 0 43 -8 55 -20z m10 -170 c47
-47 11 -140 -56 -140 -39 0 -44 11 -44 96 l0 64 40 0 c27 0 47 -7 60 -20z"/>
<path d="M2038 1219 c17 -18 17 -330 0 -347 -9 -9 1 -12 46 -12 50 0 57 2 47
14 -14 17 -11 98 4 103 15 5 67 -79 61 -99 -4 -16 4 -18 57 -18 50 0 58 2 45
13 -26 20 -107 148 -102 161 2 6 23 24 46 39 l42 27 -49 -1 c-28 0 -44 -3 -37
-6 22 -9 13 -30 -30 -69 l-43 -39 -5 120 -5 120 -45 3 c-36 3 -43 1 -32 -9z"/>
<path d="M2350 1221 c12 -9 15 -40 15 -176 0 -136 -3 -167 -15 -175 -10 -7 5
-10 50 -10 36 0 59 4 53 8 -9 6 -13 58 -15 182 l-3 175 -50 3 c-36 2 -46 0
-35 -7z"/>
<path d="M1317 1085 c-36 -25 -37 -25 -37 -5 0 17 -6 20 -47 20 -37 0 -44 -3
-35 -12 16 -16 16 -200 0 -216 -9 -9 2 -12 51 -12 57 0 61 1 47 16 -11 10 -16
34 -16 69 0 92 30 136 69 101 23 -21 28 -20 41 4 8 14 8 26 0 40 -14 26 -28
25 -73 -5z"/>
<path d="M1505 1098 c-87 -51 -95 -172 -16 -225 43 -29 79 -29 122 0 95 63 61
217 -51 232 -19 3 -44 0 -55 -7z m73 -20 c15 -15 16 -161 2 -189 -12 -21 -40
-25 -58 -7 -16 16 -16 180 0 196 7 7 19 12 28 12 9 0 21 -5 28 -12z"/>
<path d="M1789 1095 c-94 -51 -81 -206 19 -236 78 -23 146 33 146 121 0 58
-23 96 -69 116 -42 17 -63 17 -96 -1z m81 -25 c6 -11 10 -57 8 -102 -2 -64 -7
-83 -20 -92 -13 -8 -23 -8 -35 0 -15 9 -19 28 -21 99 -3 91 5 115 39 115 10 0
23 -9 29 -20z"/>
<path d="M2933 1089 c-28 -18 -33 -19 -33 -5 0 12 -11 16 -47 16 -37 0 -44 -3
-35 -12 16 -16 16 -200 0 -216 -9 -9 1 -12 45 -12 54 0 57 1 47 19 -15 28 -12
152 4 174 7 9 23 17 35 17 20 0 21 -5 21 -93 0 -59 -4 -97 -12 -105 -9 -9 2
-12 53 -12 44 0 59 3 49 10 -11 7 -16 34 -18 110 -3 89 -6 102 -25 115 -29 20
-46 19 -84 -6z"/>
<path d="M2513 1082 c9 -9 39 -66 67 -126 l50 -109 -17 -35 c-22 -44 -35 -49
-48 -20 -12 27 -34 30 -49 6 -8 -14 -6 -22 12 -40 45 -45 82 3 156 202 8 19
25 59 39 88 l25 52 -30 0 c-27 0 -29 -2 -17 -16 10 -13 9 -25 -6 -70 -10 -30
-22 -57 -27 -60 -12 -8 -61 104 -55 127 5 17 0 19 -55 19 -58 0 -60 -1 -45
-18z"/>
<path d="M480 721 c0 -26 92 -140 140 -173 l53 -38 1262 0 1262 0 52 54 c58
59 100 122 101 149 0 16 -75 17 -1435 17 -884 0 -1435 -4 -1435 -9z m469 -30
c9 -6 12 -20 9 -40 -2 -17 -1 -31 4 -31 4 0 8 -14 8 -30 0 -37 -31 -52 -99
-48 l-46 3 -3 78 -3 77 58 0 c32 0 64 -4 72 -9z m441 -6 c0 -8 -8 -16 -17 -16
-17 -1 -17 -2 0 -6 26 -7 21 -116 -5 -121 -16 -3 -18 6 -18 77 0 74 2 81 20
81 11 0 20 -7 20 -15z m861 5 c27 -15 24 -40 -5 -40 -13 0 -26 5 -28 12 -3 7
-11 9 -24 3 -16 -7 -14 -9 16 -19 52 -16 60 -24 60 -56 0 -34 -23 -50 -71 -50
-34 0 -69 24 -69 47 0 15 36 18 45 3 8 -12 55 -13 55 -1 0 5 -19 15 -42 23
-46 14 -61 45 -38 74 14 16 73 19 101 4z m269 -10 c0 -16 7 -20 35 -20 28 0
36 -4 41 -24 10 -41 1 -91 -18 -94 -13 -3 -17 6 -20 40 -2 30 -7 43 -18 43
-10 0 -16 -13 -18 -42 -3 -35 -7 -43 -23 -43 -17 0 -19 7 -19 80 0 73 2 80 20
80 13 0 20 -7 20 -20z m510 -60 c0 -73 -2 -80 -20 -80 -18 0 -20 7 -20 80 0
73 2 80 20 80 18 0 20 -7 20 -80z m-1970 2 c0 -21 3 -42 7 -45 13 -13 33 16
33 49 0 27 4 34 20 34 18 0 20 -7 20 -59 l0 -60 -42 0 c-74 0 -78 4 -78 65 0
47 2 54 20 54 17 0 20 -7 20 -38z m225 11 c0 -12 4 -25 8 -29 14 -14 7 -43
-12 -54 -43 -22 -121 3 -94 31 9 9 9 16 0 29 -18 30 8 52 57 48 35 -3 41 -6
41 -25z m273 -35 c3 -52 1 -58 -17 -58 -16 0 -20 8 -23 43 -2 29 -8 42 -18 42
-11 0 -16 -13 -18 -43 -3 -34 -7 -43 -20 -40 -13 2 -18 16 -20 61 l-3 58 58
-3 58 -3 3 -57z m150 50 c16 -16 15 -58 0 -58 -9 0 -8 -4 2 -10 13 -9 12 -12
-4 -25 -62 -47 -141 30 -89 87 18 20 73 24 91 6z m159 -4 c3 -9 0 -19 -6 -24
-10 -5 -9 -9 3 -13 22 -9 20 -44 -3 -57 -43 -22 -121 3 -94 31 9 9 9 16 0 29
-17 28 7 50 55 50 26 0 41 -5 45 -16z m160 -1 c4 -9 1 -19 -5 -21 -8 -2 -7 -8
3 -19 19 -18 19 -28 -1 -47 -19 -20 -64 -21 -90 -2 -15 11 -16 17 -7 27 8 8 9
16 1 29 -20 32 -3 50 47 50 34 0 47 -4 52 -17z m402 -2 c9 -15 7 -20 -9 -24
-11 -3 -23 -1 -26 4 -11 19 -34 9 -34 -15 0 -27 15 -42 25 -26 9 15 45 12 45
-3 0 -39 -67 -50 -100 -17 -24 24 -25 48 -4 78 20 29 88 31 103 3z m339 -13
c16 -34 -1 -76 -36 -85 -63 -16 -111 41 -78 92 15 22 23 26 59 23 34 -2 44 -8
55 -30z m147 26 c28 -11 37 -51 20 -85 -13 -24 -22 -29 -50 -29 -38 0 -75 28
-75 58 0 48 53 76 105 56z"/>
<path d="M870 655 c0 -11 7 -15 23 -13 12 2 22 8 22 13 0 6 -10 11 -22 13 -16
2 -23 -2 -23 -13z"/>
<path d="M870 595 c0 -10 10 -15 30 -15 22 0 28 4 24 15 -4 8 -17 15 -30 15
-15 0 -24 -6 -24 -15z"/>
<path d="M1238 623 c7 -3 16 -2 19 1 4 3 -2 6 -13 5 -11 0 -14 -3 -6 -6z"/>
<path d="M1225 580 c3 -5 11 -10 16 -10 6 0 7 5 4 10 -3 6 -11 10 -16 10 -6 0
-7 -4 -4 -10z"/>
<path d="M1658 623 c7 -3 16 -2 19 1 4 3 -2 6 -13 5 -11 0 -14 -3 -6 -6z"/>
<path d="M1655 580 c4 -6 11 -8 16 -5 14 9 11 15 -7 15 -8 0 -12 -5 -9 -10z"/>
<path d="M1818 623 c7 -3 16 -2 19 1 4 3 -2 6 -13 5 -11 0 -14 -3 -6 -6z"/>
<path d="M1807 579 c7 -7 15 -10 18 -7 3 3 -2 9 -12 12 -14 6 -15 5 -6 -5z"/>
<path d="M1960 580 c0 -6 7 -10 15 -10 8 0 15 2 15 4 0 2 -7 6 -15 10 -8 3
-15 1 -15 -4z"/>
<path d="M2697 624 c-16 -16 -7 -44 14 -44 15 0 20 5 17 22 -3 22 -19 33 -31
22z"/>
<path d="M2867 624 c-16 -16 -7 -44 14 -44 15 0 20 5 17 22 -3 22 -19 33 -31
22z"/>
</g>
</svg>
