<svg xmlns="http://www.w3.org/2000/svg" width="389" height="389" viewBox="0 0 389 389">
<g>
<path d="M 204.73,316.00 L 208.83,316.00 L 216.64,316.00 L 220.48,316.00 L 227.79,316.00 L 231.39,316.00 L 238.22,316.01 L 241.58,316.01 L 247.96,316.01 L 251.09,316.01 L 257.01,316.02 L 259.92,316.02 L 265.42,316.02 L 268.12,316.03 L 273.20,316.04 L 275.69,316.04 L 280.38,316.05 L 282.67,316.06 L 286.98,316.07 L 289.09,316.07 L 293.03,316.09 L 294.95,316.09 L 298.54,316.11 L 300.30,316.12 L 303.56,316.14 L 305.15,316.15 L 308.09,316.17 L 309.52,316.18 L 312.16,316.21 L 313.45,316.22 L 315.80,316.25 L 318.09,316.28 L 321.88,316.36 L 323.66,316.39 L 326.53,316.48 L 327.86,316.53 L 329.92,316.63 L 330.87,316.69 L 332.27,316.82 L 332.90,316.88 L 333.75,317.03 L 334.13,317.11 L 334.58,317.28 L 335.00,317.89 L 335.00,318.22 L 334.67,319.25 L 334.46,319.81 L 333.76,321.20 L 333.38,321.92 L 332.40,323.54 L 331.89,324.37 L 330.72,326.12 L 329.51,327.86 L 326.86,331.20 L 326.21,331.98 L 324.94,333.34 L 323.20,334.99 L 319.54,338.00 L 67.34,338.00 L 61.92,334.24 L 61.24,333.76 L 59.74,332.48 L 58.97,331.79 L 57.38,330.19 L 55.78,328.53 L 52.77,324.84 L 52.07,323.93 L 50.86,322.19 L 50.28,321.35 L 49.40,319.85 L 49.02,319.14 L 48.59,318.02 L 48.56,316.91 L 48.58,316.87 L 49.30,316.81 L 49.76,316.78 L 51.36,316.71 L 52.26,316.68 L 54.69,316.62 L 56.00,316.60 L 59.24,316.54 L 60.96,316.51 L 64.98,316.46 L 67.08,316.43 L 71.84,316.38 L 74.31,316.36 L 79.79,316.32 L 82.61,316.29 L 88.77,316.25 L 91.93,316.23 L 98.73,316.20 L 102.21,316.18 L 109.63,316.15 L 113.42,316.13 L 121.42,316.10 L 125.50,316.09 L 134.06,316.07 L 138.41,316.06 L 147.49,316.04 L 152.09,316.03 L 161.66,316.02 L 166.51,316.01 L 176.54,316.00 L 192.06,316.00 L 196.42,316.00 M 217.82,319.27 L 216.91,319.42 L 215.60,320.09 L 215.03,320.48 L 214.39,321.63 L 214.20,323.91 L 214.26,324.43 L 214.53,325.25 L 214.71,325.63 L 215.29,326.25 L 215.63,326.55 L 216.64,327.07 L 218.75,327.84 L 219.92,328.21 L 221.75,329.06 L 222.14,329.26 L 222.66,329.64 L 223.00,330.09 L 223.00,330.40 L 222.25,330.78 L 221.79,330.92 L 220.54,330.98 L 219.90,330.97 L 218.68,330.71 L 217.50,330.00 L 217.33,329.72 L 216.49,329.29 L 214.94,329.00 L 214.32,329.00 L 213.54,329.27 L 213.24,329.45 L 213.09,330.05 L 213.09,330.39 L 213.57,331.31 L 215.00,333.00 L 215.54,333.54 L 217.05,334.30 L 217.85,334.62 L 219.68,334.92 L 220.61,335.01 L 222.48,334.82 L 223.40,334.67 L 225.07,333.96 L 225.62,333.67 L 226.38,332.52 L 226.70,331.88 L 226.97,330.34 L 227.04,329.56 L 226.78,328.03 L 225.76,326.16 L 225.51,325.91 L 225.21,325.51 L 225.10,325.31 L 225.07,324.98 L 225.09,324.82 L 225.33,324.50 L 226.01,323.99 L 226.34,323.78 L 226.76,323.32 L 226.93,323.08 L 227.03,322.58 L 227.05,322.33 L 226.88,321.83 L 226.76,321.58 L 226.33,321.09 L 225.84,320.62 L 224.23,319.85 L 221.07,319.19 L 219.82,319.10 M 165.98,323.00 L 165.06,323.12 L 163.36,323.79 L 161.48,325.39 L 160.98,326.15 L 160.49,327.66 L 160.32,328.41 L 160.41,329.84 L 160.51,330.54 L 161.08,331.79 L 161.41,332.39 L 162.36,333.39 L 162.87,333.84 L 164.09,334.49 L 164.73,334.76 L 166.14,334.97 L 166.85,335.01 L 168.34,334.69 L 169.09,334.45 L 170.56,333.52 L 170.98,333.20 L 171.52,332.71 L 171.74,332.49 L 171.90,332.12 L 171.93,331.95 L 171.72,331.61 L 171.00,331.03 L 170.50,330.70 L 170.18,330.28 L 170.75,330.02 L 171.15,330.01 L 171.65,329.32 L 171.86,328.90 L 171.97,327.69 L 171.97,327.07 L 171.68,325.77 L 170.80,324.20 L 170.26,323.66 L 168.68,323.11 L 167.84,322.91 M 144.00,329.68 L 144.10,331.69 L 144.18,332.58 L 144.49,333.73 L 144.68,334.22 L 145.29,334.73 L 146.61,335.00 L 146.81,335.00 L 147.16,334.70 L 147.33,334.51 L 147.62,333.86 L 147.76,333.49 L 147.98,332.52 L 148.07,332.00 L 148.19,330.76 L 148.25,330.00 L 148.43,328.80 L 148.53,328.25 L 148.82,327.43 L 148.98,327.06 L 149.40,326.58 L 150.19,326.20 L 150.52,326.13 L 151.03,326.23 L 151.26,326.33 L 151.60,326.82 L 151.75,327.12 L 151.96,328.08 L 152.19,330.18 L 152.25,330.98 L 152.43,332.22 L 152.53,332.79 L 152.83,333.61 L 153.00,333.97 L 153.44,334.44 L 154.30,334.82 L 154.70,334.90 L 155.25,334.82 L 155.48,334.72 L 155.75,334.13 L 155.86,333.75 L 155.91,332.41 L 155.91,332.02 L 155.88,331.07 L 155.80,329.33 L 155.50,323.50 L 144.00,322.90 M 136.56,323.00 L 135.94,323.19 L 135.67,323.33 L 135.33,324.00 L 135.19,324.42 L 135.06,325.81 L 135.04,326.22 L 135.01,327.21 L 135.00,329.00 L 135.00,329.67 L 135.01,330.79 L 135.02,331.32 L 135.06,332.19 L 135.11,333.00 L 135.33,334.00 L 135.47,334.42 L 135.94,334.81 L 137.00,335.00 L 137.44,335.00 L 138.06,334.81 L 138.33,334.67 L 138.67,334.00 L 138.81,333.58 L 138.94,332.19 L 138.96,331.78 L 138.99,330.79 L 139.00,330.26 L 139.00,329.00 L 139.00,328.33 L 138.99,327.21 L 138.98,326.68 L 138.94,325.81 L 138.89,325.00 L 138.67,324.00 L 138.53,323.58 L 138.06,323.19 L 137.00,323.00 M 249.55,319.00 L 248.92,319.21 L 248.65,319.38 L 248.32,320.17 L 248.25,320.42 L 248.15,321.08 L 248.11,321.45 L 248.06,322.38 L 248.03,322.88 L 248.01,324.10 L 248.00,326.33 L 248.00,327.27 L 248.02,328.85 L 248.03,329.60 L 248.09,330.84 L 248.13,331.42 L 248.23,332.36 L 248.29,332.80 L 248.46,333.47 L 248.65,334.09 L 249.25,334.70 L 250.61,335.00 L 250.81,335.00 L 251.16,334.70 L 251.33,334.51 L 251.62,333.86 L 251.76,333.49 L 251.98,332.52 L 252.07,332.00 L 252.19,330.75 L 252.25,330.01 L 252.42,328.83 L 252.52,328.29 L 252.78,327.51 L 252.93,327.16 L 253.30,326.75 L 254.00,326.50 L 254.26,326.50 L 254.70,326.75 L 254.90,326.92 L 255.22,327.52 L 255.37,327.87 L 255.58,328.86 L 255.81,330.81 L 255.87,331.67 L 256.04,332.91 L 256.13,333.47 L 256.40,334.18 L 256.55,334.49 L 256.97,334.77 L 257.81,334.80 L 258.04,334.76 L 258.46,334.47 L 258.66,334.29 L 259.01,333.76 L 259.34,333.17 L 259.76,331.48 L 259.93,330.58 L 259.97,328.51 L 259.55,325.36 L 259.43,324.88 L 259.11,324.18 L 258.93,323.87 L 258.40,323.46 L 258.09,323.29 L 257.24,323.10 L 255.48,323.00 L 254.78,323.00 L 253.75,322.91 L 253.29,322.85 L 252.69,322.61 L 252.43,322.46 L 252.15,321.99 L 252.00,321.00 L 252.00,320.33 L 251.50,319.50 L 250.00,319.00 M 300.55,319.00 L 299.92,319.21 L 299.65,319.38 L 299.32,320.17 L 299.25,320.42 L 299.15,321.08 L 299.11,321.45 L 299.06,322.38 L 299.03,322.88 L 299.01,324.10 L 299.00,326.33 L 299.00,327.27 L 299.02,328.86 L 299.03,329.62 L 299.09,330.86 L 299.13,331.44 L 299.23,332.38 L 299.29,332.81 L 299.47,333.49 L 299.65,334.10 L 300.27,334.70 L 301.67,335.00 L 301.92,335.00 L 302.30,334.59 L 302.47,334.31 L 302.71,333.25 L 302.81,332.62 L 302.93,330.78 L 302.98,329.75 L 303.00,327.00 L 303.00,326.08 L 302.99,324.55 L 302.98,323.83 L 302.95,322.66 L 302.92,322.11 L 302.85,321.25 L 302.81,320.85 L 302.69,320.25 L 302.55,319.71 L 302.09,319.22 L 301.00,319.00 M 180.91,323.00 L 179.03,323.48 L 178.18,323.79 L 177.04,324.72 L 176.59,325.22 L 176.39,326.39 L 176.41,326.69 L 176.65,327.30 L 177.36,328.19 L 177.65,328.46 L 178.01,328.89 L 178.15,329.09 L 178.21,329.44 L 178.21,329.61 L 177.96,329.95 L 177.26,330.55 L 176.93,330.79 L 176.54,331.18 L 176.38,331.37 L 176.32,331.74 L 176.34,331.93 L 176.63,332.40 L 177.46,333.32 L 177.94,333.79 L 179.20,334.44 L 179.87,334.71 L 181.40,334.93 L 182.17,334.99 L 183.77,334.78 L 184.57,334.62 L 186.07,333.96 L 186.65,333.65 L 187.41,332.68 L 187.73,332.16 L 187.94,331.00 L 187.98,330.42 L 187.62,329.39 L 186.42,328.33 L 186.12,328.22 L 185.73,328.00 L 185.57,327.90 L 185.45,327.69 L 186.06,326.96 L 186.38,326.77 L 186.79,326.34 L 186.95,326.13 L 187.08,325.68 L 187.15,325.24 L 186.56,324.39 L 186.16,324.00 L 184.78,323.40 L 182.07,323.00 M 287.08,323.13 L 286.40,323.23 L 285.15,323.69 L 284.55,323.95 L 283.53,324.68 L 283.05,325.07 L 282.31,326.02 L 281.99,326.51 L 281.62,327.63 L 281.48,328.20 L 281.53,329.42 L 282.15,331.32 L 282.54,332.06 L 283.30,333.14 L 283.70,333.62 L 284.60,334.26 L 285.09,334.53 L 286.32,334.82 L 288.72,334.98 L 289.37,334.99 L 290.38,334.86 L 290.85,334.77 L 291.61,334.40 L 291.96,334.18 L 292.58,333.50 L 292.88,333.12 L 293.47,332.06 L 293.90,331.22 L 294.28,329.48 L 294.39,328.61 L 294.17,326.99 L 293.99,326.21 L 293.21,324.93 L 291.49,323.64 L 290.73,323.34 L 289.23,323.08 L 288.49,323.00 M 237.56,323.00 L 235.64,323.32 L 234.77,323.54 L 233.53,324.35 L 232.99,324.82 L 232.36,326.20 L 232.00,328.99 L 232.00,330.07 L 232.33,331.74 L 232.56,332.50 L 233.40,333.58 L 233.89,334.06 L 235.31,334.62 L 238.19,334.97 L 239.03,334.98 L 240.59,334.39 L 241.33,334.01 L 242.47,332.75 L 242.83,332.23 L 243.29,331.52 L 243.47,331.20 L 243.55,330.80 L 243.55,330.62 L 243.26,330.40 L 242.42,330.16 L 241.97,330.06 L 240.97,330.21 L 239.77,330.83 L 239.37,331.23 L 238.50,331.50 L 238.07,331.55 L 237.28,331.19 L 236.91,330.94 L 236.36,330.06 L 236.00,328.29 L 236.00,327.79 L 236.08,327.09 L 236.13,326.78 L 236.35,326.44 L 236.48,326.30 L 236.89,326.27 L 237.75,326.53 L 238.73,326.94 L 241.19,327.17 L 241.76,327.17 L 242.75,327.03 L 243.76,326.58 L 244.05,326.29 L 243.86,325.53 L 243.67,325.14 L 242.76,324.35 L 242.24,323.98 L 240.91,323.40 L 238.81,323.00 M 83.00,327.34 L 83.05,329.23 L 83.09,330.14 L 83.20,331.71 L 83.26,332.43 L 83.41,333.50 L 83.67,334.33 L 83.79,334.46 L 84.30,334.65 L 84.58,334.74 L 85.36,334.86 L 86.19,334.97 L 88.33,334.97 L 89.43,334.94 L 91.66,334.68 L 92.73,334.52 L 94.43,334.02 L 94.93,333.84 L 95.67,333.41 L 96.00,333.18 L 96.46,332.62 L 96.65,332.31 L 96.88,331.53 L 97.00,330.02 L 97.00,329.19 L 96.76,327.89 L 96.68,327.61 L 96.49,327.24 L 96.17,327.00 L 96.06,327.00 L 95.89,326.75 L 95.81,326.60 L 95.72,326.09 L 95.80,323.89 L 95.95,322.90 L 95.81,321.46 L 95.66,320.82 L 94.77,319.98 L 94.49,319.80 L 93.75,319.52 L 93.35,319.40 L 92.35,319.23 L 91.82,319.16 L 90.53,319.07 L 88.25,319.02 L 83.00,319.00 M 195.11,323.35 L 194.65,323.48 L 193.84,323.86 L 192.93,324.58 L 192.66,324.90 L 192.33,325.46 L 192.19,325.73 L 192.12,326.25 L 192.12,326.52 L 192.32,327.12 L 192.90,328.22 L 193.16,328.64 L 193.49,329.28 L 193.62,329.58 L 193.68,330.04 L 193.67,330.26 L 193.46,330.62 L 192.84,331.15 L 192.57,331.33 L 192.26,331.65 L 192.15,331.82 L 192.16,332.16 L 192.20,332.33 L 192.54,332.75 L 193.44,333.52 L 194.08,334.00 L 195.64,334.60 L 196.44,334.84 L 198.14,334.94 L 198.98,334.93 L 200.55,334.55 L 201.28,334.30 L 202.43,333.43 L 202.92,332.94 L 203.53,332.12 L 203.78,331.73 L 203.91,331.02 L 203.92,330.66 L 203.57,329.92 L 202.51,328.65 L 201.98,328.13 L 201.65,327.42 L 202.19,326.77 L 202.51,326.66 L 202.83,326.00 L 202.71,324.69 L 202.60,324.41 L 202.12,323.95 L 201.84,323.74 L 201.08,323.42 L 200.26,323.13 L 198.19,322.96 L 197.13,322.95 M 270.38,322.97 L 269.21,323.20 L 268.64,323.36 L 267.58,323.87 L 267.07,324.17 L 266.20,324.96 L 265.19,326.47 L 264.88,327.17 L 264.66,328.75 L 264.61,329.55 L 264.88,331.11 L 265.07,331.86 L 265.76,333.11 L 267.19,334.32 L 267.68,334.51 L 269.01,334.76 L 269.70,334.85 L 271.17,334.88 L 271.90,334.88 L 273.20,334.71 L 273.80,334.60 L 274.60,334.23 L 275.25,333.80 L 276.22,332.65 L 276.66,332.04 L 277.17,330.64 L 277.36,329.93 L 277.38,328.43 L 276.79,326.23 L 276.52,325.67 L 275.76,324.77 L 275.35,324.35 L 274.36,323.73 L 273.85,323.46 L 272.73,323.13 L 272.15,323.00 L 270.97,322.96 M 122.40,323.26 L 121.16,323.45 L 120.62,323.57 L 119.95,324.05 L 119.67,324.34 L 119.33,325.35 L 118.93,327.74 L 118.78,328.90 L 118.70,330.99 L 118.70,331.45 L 118.76,332.17 L 118.93,332.84 L 119.28,333.36 L 120.53,334.12 L 121.22,334.44 L 122.92,334.77 L 123.79,334.88 L 125.60,334.74 L 126.49,334.61 L 128.07,333.96 L 128.67,333.64 L 129.44,332.69 L 129.75,332.19 L 129.93,331.05 L 129.95,330.48 L 129.54,329.39 L 128.25,328.08 L 127.83,327.84 L 127.31,327.51 L 127.10,327.37 L 127.00,327.20 L 127.00,327.13 L 127.31,327.07 L 128.25,327.03 L 128.73,327.02 L 129.49,326.75 L 130.00,326.12 L 130.00,325.65 L 129.47,324.82 L 129.13,324.43 L 128.02,323.83 L 127.42,323.56 L 125.90,323.25 L 123.32,323.19 M 103.57,323.00 L 102.96,323.17 L 102.69,323.30 L 102.35,323.85 L 102.21,324.19 L 102.07,325.31 L 102.00,327.80 L 102.00,329.12 L 102.33,331.52 L 102.44,332.06 L 102.70,332.92 L 103.14,333.74 L 103.30,333.90 L 103.97,334.17 L 104.35,334.30 L 105.37,334.51 L 109.14,334.77 L 114.00,334.66 L 114.00,327.54 L 113.94,325.74 L 113.89,324.95 L 113.66,323.98 L 113.52,323.57 L 113.06,323.18 L 112.00,323.00 L 111.60,323.00 L 111.02,323.15 L 110.76,323.25 L 110.40,323.66 L 110.25,323.90 L 110.08,324.65 L 109.98,326.25 L 109.98,327.14 L 109.72,328.95 L 109.64,329.37 L 109.44,330.09 L 109.10,330.88 L 108.73,331.46 L 108.00,331.82 L 107.64,331.89 L 107.00,331.34 L 106.70,330.96 L 106.28,329.64 L 106.00,326.94 L 106.00,326.12 L 105.92,324.94 L 105.86,324.42 L 105.62,323.74 L 105.48,323.45 L 105.01,323.16 L 104.00,323.00 M 272.15,327.16 L 272.82,328.75 L 272.88,329.18 L 272.87,329.83 L 272.84,330.12 L 272.62,330.52 L 272.48,330.70 L 272.01,330.89 L 271.00,331.00 L 270.59,331.00 L 269.99,330.89 L 269.72,330.82 L 269.38,330.52 L 269.24,330.35 L 269.13,329.83 L 269.10,329.54 L 269.18,328.75 L 269.27,328.13 L 269.85,327.16 L 271.00,326.50 L 271.41,326.50 M 89.67,328.18 L 90.65,328.30 L 91.92,328.82 L 92.44,329.10 L 92.77,329.76 L 92.82,330.09 L 92.18,330.62 L 91.96,330.74 L 91.32,330.90 L 90.08,331.00 L 89.55,331.00 L 88.70,330.91 L 88.31,330.85 L 87.74,330.62 L 87.49,330.49 L 87.18,330.14 L 87.06,329.94 L 87.00,329.43 L 87.00,329.16 L 87.15,328.74 L 87.25,328.55 L 87.63,328.31 L 87.84,328.21 L 88.46,328.13 M 91.06,322.45 L 91.67,323.45 L 91.67,323.94 L 91.03,324.59 L 89.25,325.00 L 88.51,325.00 L 87.60,324.66 L 87.25,324.45 L 87.24,323.75 L 87.40,323.28 L 88.20,322.65 L 88.64,322.38 L 89.69,322.20 L 90.20,322.16 M 136.44,319.00 L 135.58,319.44 L 135.00,320.50 L 135.00,320.92 L 135.58,321.56 L 137.00,322.00 L 137.56,322.00 L 138.42,321.56 L 138.78,321.29 L 139.00,320.50 L 139.00,320.08 L 138.42,319.44 L 137.00,319.00 M 298.00,230.72 L 298.00,231.00 L 298.11,231.52 L 298.29,231.71 L 298.72,232.00 L 299.00,232.00 L 299.71,231.71 L 300.00,231.27 L 300.00,231.00 L 299.71,230.29 L 299.27,230.00 L 318.55,230.00 L 325.10,236.75 L 325.98,237.65 L 327.53,239.30 L 328.28,240.11 L 329.60,241.58 L 330.22,242.29 L 331.30,243.60 L 331.82,244.23 L 332.67,245.37 L 333.47,246.48 L 334.44,248.29 L 335.00,250.46 L 335.00,250.55 L 334.80,250.71 L 334.66,250.78 L 334.10,250.92 L 333.77,250.99 L 332.77,251.12 L 332.21,251.18 L 330.66,251.28 L 329.81,251.34 L 327.62,251.43 L 326.44,251.47 L 323.52,251.55 L 321.96,251.59 L 318.21,251.66 L 316.23,251.69 L 311.55,251.75 L 309.09,251.77 L 303.40,251.82 L 301.91,251.83 L 298.72,251.85 L 297.09,251.86 L 293.61,251.88 L 291.84,251.88 L 288.06,251.90 L 286.14,251.91 L 282.05,251.92 L 279.96,251.93 L 275.55,251.94 L 273.31,251.94 L 268.56,251.95 L 266.15,251.96 L 261.05,251.97 L 258.46,251.97 L 253.01,251.98 L 250.24,251.98 L 244.42,251.98 L 241.46,251.99 L 235.26,251.99 L 232.11,251.99 L 225.51,251.99 L 222.16,252.00 L 215.15,252.00 L 211.60,252.00 L 204.18,252.00 L 192.56,252.00 L 187.12,252.00 L 176.60,252.00 L 171.41,251.99 L 161.42,251.98 L 156.49,251.98 L 147.05,251.96 L 142.40,251.95 L 133.52,251.93 L 129.15,251.92 L 120.86,251.90 L 116.80,251.89 L 109.12,251.86 L 105.37,251.84 L 98.33,251.80 L 94.90,251.79 L 88.52,251.75 L 85.42,251.73 L 79.73,251.68 L 76.97,251.66 L 71.98,251.61 L 69.58,251.59 L 65.33,251.54 L 63.29,251.51 L 59.79,251.45 L 58.13,251.42 L 55.41,251.36 L 54.14,251.33 L 52.22,251.27 L 51.35,251.24 L 50.25,251.17 L 49.80,251.14 L 49.54,251.07 L 49.39,250.81 L 49.41,249.93 L 49.47,249.43 L 49.87,248.15 L 50.11,247.46 L 50.83,245.90 L 51.21,245.10 L 52.17,243.38 L 53.17,241.64 L 55.59,238.22 L 56.21,237.41 L 57.47,235.95 L 59.31,234.13 L 64.12,230.00 L 299.00,230.00 L 298.29,230.29 M 210.82,232.20 L 210.25,232.94 L 209.31,235.00 L 209.07,235.62 L 208.60,236.52 L 208.35,236.92 L 207.76,237.44 L 207.43,237.66 L 206.57,237.90 L 204.84,238.03 L 201.50,238.06 L 204.18,240.07 L 204.76,240.50 L 205.56,241.24 L 205.90,241.60 L 206.29,242.36 L 206.44,242.77 L 206.48,243.76 L 206.26,245.76 L 205.67,249.45 L 208.49,247.60 L 209.16,247.16 L 210.13,246.61 L 210.57,246.39 L 211.32,246.26 L 211.70,246.25 L 212.53,246.55 L 212.99,246.75 L 214.22,247.47 L 217.13,249.19 L 216.48,245.73 L 216.34,244.99 L 216.24,243.87 L 216.22,243.35 L 216.43,242.51 L 216.58,242.11 L 217.16,241.37 L 218.55,240.14 L 221.27,238.00 L 218.38,237.98 L 217.49,237.98 L 216.08,237.80 L 215.44,237.67 L 214.46,237.18 L 214.02,236.90 L 213.35,236.04 L 212.57,234.25 L 212.33,233.49 L 211.85,232.58 L 211.60,232.23 L 211.09,232.14 M 298.69,232.18 L 298.17,232.94 L 297.50,235.00 L 297.35,235.67 L 297.03,236.59 L 296.86,237.00 L 296.34,237.50 L 296.04,237.71 L 295.14,237.92 L 293.17,238.03 L 289.50,238.06 L 292.18,240.07 L 292.76,240.50 L 293.56,241.24 L 293.90,241.60 L 294.29,242.36 L 294.44,242.77 L 294.48,243.76 L 294.26,245.76 L 293.67,249.45 L 296.49,247.60 L 297.16,247.16 L 298.13,246.61 L 298.57,246.39 L 299.32,246.26 L 299.70,246.25 L 300.53,246.55 L 300.99,246.75 L 302.22,247.47 L 305.13,249.19 L 304.48,245.73 L 304.34,244.99 L 304.24,243.87 L 304.22,243.35 L 304.43,242.51 L 304.58,242.11 L 305.16,241.37 L 306.55,240.14 L 309.27,238.00 L 306.38,237.98 L 305.49,237.98 L 304.08,237.80 L 303.44,237.67 L 302.46,237.18 L 302.02,236.90 L 301.35,236.04 L 300.57,234.25 L 300.32,233.47 L 299.79,232.55 L 299.51,232.19 L 298.96,232.12 M 166.63,234.76 L 166.29,235.41 L 165.65,236.37 L 165.34,236.80 L 164.64,237.37 L 164.28,237.61 L 163.40,237.88 L 161.72,238.03 L 158.50,238.06 L 161.18,240.07 L 161.76,240.49 L 162.55,241.23 L 162.89,241.59 L 163.28,242.35 L 163.43,242.75 L 163.49,243.72 L 163.28,245.66 L 162.70,249.24 L 165.39,247.48 L 165.97,247.10 L 166.88,246.61 L 167.31,246.41 L 168.05,246.26 L 168.41,246.23 L 169.18,246.41 L 169.58,246.53 L 170.54,247.02 L 171.31,247.43 L 172.41,247.82 L 172.89,247.93 L 173.43,247.72 L 173.63,247.53 L 173.64,246.69 L 173.08,244.71 L 172.86,244.13 L 172.66,243.28 L 172.61,242.88 L 172.80,242.22 L 172.95,241.90 L 173.63,241.25 L 175.30,240.08 L 178.50,238.03 L 175.50,238.00 L 174.59,237.99 L 173.20,237.82 L 172.57,237.69 L 171.59,237.21 L 171.14,236.91 L 170.41,235.99 L 169.37,234.01 L 168.30,231.51 M 254.90,234.53 L 254.63,235.09 L 254.05,235.96 L 253.75,236.36 L 253.03,236.96 L 252.65,237.23 L 251.73,237.61 L 250.02,238.00 L 246.57,238.50 L 249.22,240.23 L 249.80,240.61 L 250.59,241.26 L 250.93,241.59 L 251.31,242.30 L 251.46,242.68 L 251.51,243.64 L 251.29,245.61 L 250.70,249.24 L 253.43,247.45 L 254.08,247.03 L 255.02,246.50 L 255.45,246.28 L 256.19,246.17 L 256.56,246.17 L 257.39,246.47 L 257.85,246.67 L 259.08,247.39 L 259.86,247.85 L 260.91,248.30 L 261.36,248.44 L 261.80,248.21 L 261.95,248.00 L 261.82,247.02 L 261.05,244.63 L 260.84,244.08 L 260.66,243.25 L 260.61,242.86 L 260.81,242.21 L 260.97,241.89 L 261.65,241.24 L 263.30,240.08 L 266.50,238.03 L 263.50,238.00 L 262.59,237.99 L 261.20,237.82 L 260.57,237.69 L 259.60,237.21 L 259.15,236.92 L 258.41,236.00 L 257.38,234.03 L 256.32,231.56 M 81.69,234.25 L 81.35,235.06 L 80.75,236.21 L 80.45,236.71 L 79.80,237.35 L 79.46,237.61 L 78.58,237.87 L 76.80,238.00 L 73.50,238.01 L 76.32,240.26 L 76.95,240.77 L 77.79,241.55 L 78.14,241.92 L 78.49,242.61 L 78.61,242.96 L 78.55,243.76 L 78.07,245.32 L 77.86,245.87 L 77.55,246.78 L 77.41,247.21 L 77.25,247.88 L 77.19,248.18 L 77.19,248.62 L 77.21,248.81 L 77.38,249.02 L 77.49,249.09 L 77.84,249.08 L 78.03,249.05 L 78.56,248.82 L 78.85,248.68 L 79.58,248.24 L 79.97,248.00 L 80.90,247.36 L 81.45,246.97 L 82.26,246.50 L 82.65,246.31 L 83.34,246.22 L 83.69,246.23 L 84.51,246.54 L 86.19,247.45 L 89.13,249.19 L 88.48,245.73 L 88.34,244.99 L 88.24,243.87 L 88.22,243.35 L 88.43,242.51 L 88.58,242.11 L 89.16,241.37 L 90.55,240.14 L 93.27,238.00 L 90.38,237.98 L 89.45,237.98 L 88.02,237.79 L 87.37,237.65 L 86.39,237.10 L 85.94,236.77 L 85.23,235.73 L 84.29,233.50 L 83.29,230.50 M 124.54,232.59 L 123.75,233.19 L 122.52,234.97 L 122.21,235.57 L 121.60,236.46 L 121.30,236.85 L 120.61,237.39 L 120.25,237.63 L 119.38,237.89 L 117.72,238.05 L 116.92,238.07 L 115.90,238.11 L 115.48,238.14 L 115.19,238.30 L 115.13,238.40 L 115.50,238.77 L 116.75,239.67 L 117.18,239.97 L 117.82,240.62 L 118.11,240.96 L 118.51,241.78 L 118.69,242.21 L 118.89,243.28 L 119.00,245.28 L 119.00,246.24 L 119.04,247.49 L 119.08,248.02 L 119.26,248.50 L 119.38,248.65 L 119.81,248.49 L 120.83,247.65 L 121.33,247.20 L 122.47,246.49 L 123.02,246.19 L 123.86,246.00 L 124.20,246.00 L 125.44,246.47 L 127.54,247.62 L 128.20,248.05 L 129.12,248.43 L 129.51,248.53 L 129.89,248.21 L 130.02,247.96 L 129.87,246.92 L 129.08,244.50 L 128.93,244.11 L 128.84,243.42 L 128.84,243.09 L 129.09,242.45 L 129.26,242.12 L 129.90,241.44 L 131.34,240.25 L 134.39,238.00 L 130.80,238.00 L 129.23,237.81 L 128.51,237.69 L 127.43,237.25 L 126.95,236.99 L 126.36,236.29 L 126.00,234.95 L 126.00,234.16 L 125.69,233.18 L 125.49,232.78 L 124.87,232.59 M 149.93,145.98 L 150.68,146.08 L 151.01,146.16 L 151.44,146.54 L 151.61,146.77 L 151.72,147.59 L 151.73,148.06 L 151.52,149.47 L 151.38,150.27 L 150.86,152.43 L 150.56,153.62 L 149.73,156.69 L 149.51,157.52 L 149.00,159.39 L 148.16,162.50 L 147.33,165.55 L 145.89,171.93 L 145.19,175.20 L 143.97,182.25 L 143.67,184.08 L 143.11,187.91 L 142.84,189.86 L 142.31,193.98 L 142.05,196.08 L 141.56,200.54 L 140.84,207.63 L 139.59,220.77 L 134.55,221.38 L 133.70,221.48 L 131.65,221.64 L 130.58,221.72 L 128.22,221.83 L 125.83,221.93 L 120.87,221.97 L 119.68,221.97 L 117.48,221.93 L 116.43,221.90 L 114.64,221.81 L 113.81,221.75 L 112.61,221.61 L 112.10,221.53 L 111.67,221.33 L 111.49,221.16 L 111.27,220.51 L 111.18,220.13 L 111.11,219.11 L 111.10,218.55 L 111.19,217.20 L 111.25,216.48 L 111.47,214.83 L 111.60,213.97 L 111.95,212.07 L 112.14,211.08 L 112.61,208.95 L 113.11,206.77 L 114.42,201.90 L 115.12,199.41 L 116.77,194.14 L 117.62,191.48 L 119.53,186.10 L 120.50,183.42 L 122.57,178.22 L 125.79,170.96 L 127.03,168.36 L 130.00,162.91 L 131.53,160.21 L 134.62,155.25 L 135.37,154.08 L 136.80,152.00 L 137.49,151.01 L 138.74,149.36 L 139.33,148.61 L 140.33,147.53 L 141.46,146.65 L 141.70,146.56 L 142.48,146.40 L 142.91,146.32 L 143.99,146.19 L 147.70,146.00 L 148.36,146.00 L 149.43,145.98 M 184.14,183.00 L 184.11,185.51 L 184.05,190.35 L 184.02,192.73 L 183.95,197.23 L 183.91,199.42 L 183.83,203.49 L 183.78,205.45 L 183.69,208.98 L 183.65,210.66 L 183.56,213.54 L 183.51,214.90 L 183.41,217.04 L 183.37,218.00 L 183.27,219.30 L 183.14,220.18 L 182.86,220.47 L 181.66,220.89 L 181.29,220.98 L 180.34,221.13 L 179.83,221.20 L 178.56,221.29 L 177.88,221.33 L 176.25,221.38 L 175.39,221.40 L 173.36,221.41 L 172.30,221.40 L 169.83,221.37 L 168.54,221.34 L 165.60,221.27 L 153.70,220.93 L 154.30,210.22 L 154.39,208.70 L 154.68,205.35 L 154.85,203.62 L 155.30,199.89 L 155.55,197.98 L 156.15,193.92 L 156.47,191.85 L 157.20,187.52 L 157.98,183.14 L 159.89,173.83 L 163.23,159.50 L 166.50,146.50 L 184.50,146.50 M 124.32,146.85 L 124.43,146.99 L 124.28,147.60 L 124.14,147.95 L 123.47,148.98 L 121.85,151.00 L 120.90,152.09 L 118.95,154.91 L 117.97,156.43 L 115.99,160.03 L 114.99,161.92 L 113.01,166.20 L 112.03,168.42 L 110.09,173.27 L 109.14,175.76 L 107.28,181.09 L 106.37,183.81 L 104.64,189.51 L 103.80,192.39 L 102.23,198.36 L 100.11,207.50 L 97.34,220.50 L 71.00,221.06 L 71.02,217.78 L 71.03,216.71 L 71.32,214.31 L 71.50,213.07 L 72.12,210.39 L 72.47,209.01 L 73.39,206.10 L 73.90,204.62 L 75.11,201.53 L 75.75,199.97 L 77.23,196.77 L 78.00,195.16 L 79.72,191.90 L 85.66,182.19 L 86.42,181.07 L 88.22,178.68 L 89.16,177.46 L 91.26,174.93 L 93.42,172.38 L 98.40,167.09 L 100.97,164.45 L 106.47,159.31 L 114.82,152.25 L 115.90,151.40 L 117.84,149.98 L 118.77,149.32 L 120.36,148.30 L 121.11,147.83 L 122.31,147.21 L 122.86,146.94 L 123.65,146.72 L 123.99,146.66 M 215.45,151.15 L 215.92,152.73 L 216.83,156.29 L 217.29,158.13 L 218.16,162.16 L 218.59,164.23 L 219.41,168.64 L 219.81,170.89 L 220.56,175.61 L 221.30,180.40 L 222.51,190.55 L 223.86,206.00 L 223.98,207.86 L 224.16,211.30 L 224.25,212.95 L 224.35,215.75 L 224.37,216.40 L 224.39,217.52 L 224.40,218.04 L 224.40,218.89 L 224.40,219.28 L 224.37,219.82 L 224.31,220.25 L 224.28,220.30 L 223.93,220.40 L 223.71,220.45 L 223.00,220.54 L 222.61,220.59 L 221.59,220.67 L 221.05,220.71 L 219.76,220.78 L 218.42,220.85 L 215.08,220.94 L 209.44,221.00 L 195.00,221.00 L 195.00,203.54 L 194.99,200.95 L 194.98,199.60 L 194.95,196.65 L 194.91,193.62 L 194.81,186.91 L 194.75,183.51 L 194.60,176.67 L 194.34,167.16 L 193.68,146.00 L 213.92,146.00 M 234.61,146.07 L 235.26,146.12 L 236.41,146.36 L 236.97,146.51 L 238.00,147.02 L 238.52,147.31 L 239.54,148.17 L 240.05,148.66 L 241.16,149.96 L 241.73,150.67 L 243.00,152.51 L 243.68,153.51 L 245.23,155.97 L 247.98,160.46 L 249.31,162.67 L 251.76,167.03 L 252.95,169.21 L 255.12,173.57 L 256.18,175.75 L 258.10,180.16 L 259.04,182.38 L 260.73,186.90 L 261.56,189.19 L 263.05,193.89 L 263.77,196.27 L 265.08,201.21 L 265.72,203.72 L 266.87,208.97 L 268.44,217.25 L 269.09,221.00 L 252.78,221.00 L 249.84,220.99 L 248.47,220.99 L 246.27,220.96 L 245.25,220.94 L 243.67,220.87 L 242.95,220.83 L 241.89,220.70 L 241.42,220.63 L 240.76,220.43 L 240.47,220.32 L 240.11,220.03 L 239.80,219.72 L 239.60,218.75 L 239.56,218.60 L 239.47,217.97 L 239.42,217.61 L 239.30,216.61 L 239.23,216.07 L 239.08,214.75 L 239.00,214.06 L 238.82,212.46 L 238.64,210.81 L 238.23,206.89 L 237.58,200.50 L 237.14,195.98 L 236.05,187.25 L 235.48,182.97 L 234.19,175.05 L 233.86,173.14 L 233.17,169.55 L 232.82,167.80 L 232.11,164.56 L 231.75,162.99 L 231.02,160.15 L 229.93,156.42 L 229.49,155.08 L 228.78,152.88 L 228.45,151.86 L 227.99,150.25 L 227.78,149.51 L 227.58,148.39 L 227.51,147.89 L 227.59,147.17 L 227.66,146.86 L 228.05,146.46 L 228.28,146.29 L 228.99,146.11 L 229.39,146.05 L 230.46,146.01 L 232.47,146.00 L 233.26,146.00 M 255.42,146.94 L 257.75,148.10 L 259.64,149.24 L 263.43,151.82 L 265.32,153.16 L 269.07,156.09 L 270.93,157.59 L 274.58,160.82 L 276.38,162.46 L 279.87,165.90 L 281.58,167.65 L 284.83,171.25 L 286.43,173.07 L 289.39,176.77 L 290.83,178.63 L 293.45,182.36 L 296.90,187.93 L 298.40,190.60 L 301.30,196.64 L 302.70,199.70 L 305.12,205.84 L 305.68,207.34 L 306.66,210.21 L 307.12,211.60 L 307.85,214.18 L 308.19,215.41 L 308.65,217.58 L 308.98,220.25 L 308.98,220.31 L 308.69,220.42 L 308.50,220.48 L 307.88,220.58 L 307.53,220.62 L 306.61,220.70 L 306.12,220.74 L 304.96,220.81 L 303.75,220.87 L 300.82,220.94 L 299.30,220.97 L 296.05,220.98 L 294.42,220.98 L 291.25,220.93 L 289.71,220.90 L 287.02,220.79 L 285.77,220.73 L 283.95,220.56 L 283.57,220.51 L 283.04,220.40 L 282.82,220.35 L 282.64,220.23 L 282.58,220.12 L 282.33,219.26 L 282.19,218.74 L 281.83,217.19 L 281.65,216.35 L 281.22,214.33 L 280.56,210.98 L 280.11,208.58 L 278.83,203.26 L 278.14,200.54 L 276.46,194.79 L 275.59,191.90 L 273.64,186.04 L 272.64,183.13 L 270.54,177.47 L 269.48,174.70 L 267.35,169.57 L 266.29,167.09 L 264.24,162.79 L 263.74,161.78 L 262.78,159.97 L 262.30,159.10 L 261.40,157.61 L 260.96,156.90 L 260.13,155.76 L 259.00,154.50 L 258.45,154.00 L 257.59,152.95 L 257.00,151.77 L 257.00,151.52 L 256.56,150.69 L 255.50,149.36 L 255.15,149.01 L 254.64,148.40 L 254.41,148.12 L 254.14,147.66 L 254.03,147.44 L 253.99,147.13 L 253.99,146.99 L 254.16,146.82 L 254.38,146.70 M 193.07,42.01 L 194.03,42.33 L 194.58,42.56 L 196.12,43.51 L 196.55,43.79 L 197.59,44.52 L 198.14,44.91 L 199.44,45.87 L 200.12,46.38 L 201.72,47.60 L 204.50,49.75 L 205.76,50.73 L 207.93,52.48 L 208.96,53.32 L 210.68,54.81 L 211.49,55.52 L 212.77,56.75 L 213.36,57.33 L 214.20,58.31 L 214.57,58.77 L 214.98,59.50 L 215.13,59.84 L 215.12,60.34 L 215.06,60.56 L 214.63,60.84 L 213.52,61.00 L 213.24,61.00 L 212.76,61.17 L 212.54,61.29 L 212.16,61.75 L 211.99,62.03 L 211.72,62.88 L 211.59,63.36 L 211.40,64.68 L 211.32,65.40 L 211.21,67.26 L 211.17,68.26 L 211.13,70.75 L 211.11,72.08 L 211.13,75.29 L 211.21,80.98 L 211.50,96.45 L 216.87,100.45 L 222.24,104.46 L 221.70,110.38 L 221.55,112.01 L 221.57,115.21 L 221.59,115.94 L 221.72,117.18 L 222.00,118.51 L 222.16,118.91 L 222.78,119.83 L 223.15,120.30 L 224.17,121.34 L 224.72,121.87 L 226.08,122.99 L 226.80,123.56 L 228.47,124.74 L 230.20,125.93 L 234.38,128.36 L 241.39,131.84 L 242.58,132.37 L 244.79,133.38 L 245.85,133.88 L 247.67,134.75 L 248.52,135.15 L 249.74,135.78 L 250.67,136.34 L 250.70,136.36 L 250.44,136.41 L 250.27,136.43 L 249.63,136.47 L 249.26,136.49 L 248.26,136.54 L 247.72,136.56 L 246.38,136.60 L 245.67,136.62 L 244.00,136.65 L 243.13,136.67 L 241.16,136.71 L 240.14,136.73 L 237.88,136.76 L 236.72,136.78 L 234.20,136.81 L 231.62,136.84 L 225.74,136.89 L 222.69,136.91 L 216.01,136.95 L 212.58,136.96 L 205.24,136.99 L 193.67,137.00 L 189.70,137.00 L 182.08,136.98 L 178.34,136.97 L 171.28,136.94 L 167.83,136.92 L 161.49,136.87 L 158.42,136.84 L 152.94,136.78 L 151.64,136.76 L 149.22,136.73 L 148.04,136.71 L 145.89,136.67 L 144.85,136.65 L 142.99,136.61 L 142.10,136.59 L 140.56,136.54 L 139.83,136.52 L 138.62,136.47 L 138.05,136.45 L 137.19,136.40 L 136.80,136.38 L 136.31,136.33 L 136.12,136.30 L 136.02,136.25 L 136.02,136.20 L 136.21,136.01 L 136.34,135.90 L 136.77,135.61 L 137.26,135.30 L 138.82,134.43 L 139.68,133.96 L 141.85,132.86 L 145.54,131.10 L 146.92,130.46 L 149.69,129.02 L 151.06,128.28 L 153.64,126.75 L 154.88,125.99 L 157.04,124.51 L 159.55,122.51 L 164.04,118.32 L 163.39,111.23 L 162.73,104.15 L 167.83,101.01 L 168.59,100.54 L 169.84,99.74 L 170.43,99.34 L 171.36,98.54 L 171.79,98.11 L 172.45,97.11 L 172.75,96.56 L 173.19,95.16 L 173.39,94.40 L 173.67,92.40 L 173.79,91.31 L 173.95,88.52 L 173.98,87.77 L 174.04,86.08 L 174.07,85.20 L 174.12,83.24 L 174.14,82.22 L 174.18,79.98 L 174.24,76.25 L 174.50,61.00 L 171.92,61.00 L 170.95,61.00 L 169.68,60.80 L 169.16,60.67 L 168.79,60.20 L 168.71,59.92 L 169.23,59.15 L 171.01,57.62 L 171.41,57.33 L 172.81,56.27 L 173.59,55.67 L 175.56,54.14 L 176.60,53.34 L 178.88,51.54 L 182.40,48.75 L 183.56,47.82 L 185.83,46.13 L 186.93,45.32 L 188.91,43.99 L 189.84,43.37 L 191.31,42.54 L 191.63,42.37 L 192.14,42.15 L 192.68,42.01 Z" fill="rgba(6,39,95,1)"/>
<path d="M 299.71,230.29 L 300.00,231.00 L 300.00,231.27 L 299.71,231.71 L 299.00,232.00 L 298.72,232.00 L 298.29,231.71 L 298.11,231.52 L 298.00,231.00 L 298.00,230.72 L 298.29,230.29 L 299.00,230.00 L 299.27,230.00 Z" fill="rgba(68,94,129,1)"/>
<path d="M 254.79,279.02 L 255.97,279.05 L 256.52,279.08 L 257.44,279.18 L 258.31,279.32 L 258.70,279.53 L 258.47,279.46 L 257.07,279.15 L 256.37,279.23 L 255.03,279.56 L 254.49,280.01 L 253.44,281.14 L 253.00,281.89 L 253.00,282.13 L 253.10,282.50 L 253.25,282.93 L 253.37,283.22 L 253.95,284.60 L 254.38,285.54 L 255.30,287.57 L 255.86,288.75 L 257.04,291.20 L 257.68,292.51 L 258.98,295.06 L 259.61,296.19 L 260.84,298.35 L 261.38,299.21 L 262.42,300.77 L 262.82,301.25 L 263.19,301.68 L 263.34,301.81 L 263.61,302.00 L 263.70,302.00 L 265.06,301.26 L 265.86,300.18 L 266.15,299.48 L 266.64,298.02 L 266.71,297.29 L 266.71,295.86 L 266.47,295.31 L 265.86,293.89 L 265.57,293.14 L 265.53,293.00 L 265.33,292.49 L 265.09,291.89 L 264.92,291.49 L 264.13,289.64 L 263.66,288.56 L 263.31,287.67 L 264.12,289.55 L 264.39,290.17 L 264.90,291.19 L 265.52,292.28 L 265.79,292.67 L 266.23,293.07 L 266.44,293.19 L 266.88,292.94 L 267.11,292.71 L 267.69,291.68 L 268.86,289.09 L 269.19,288.34 L 269.72,287.03 L 269.96,286.41 L 270.34,285.33 L 270.67,284.31 L 270.88,282.82 L 270.91,282.16 L 270.52,281.20 L 269.25,280.08 L 268.90,279.88 L 268.59,279.58 L 268.50,279.45 L 268.75,279.26 L 268.96,279.18 L 269.83,279.09 L 271.90,279.03 L 272.93,279.02 L 274.29,279.06 L 274.87,279.09 L 275.42,279.27 L 275.61,279.38 L 275.51,279.79 L 274.77,280.75 L 274.66,280.87 L 274.34,281.39 L 274.16,281.69 L 273.72,282.53 L 273.48,282.99 L 272.93,284.13 L 272.64,284.72 L 272.00,286.10 L 271.34,287.53 L 269.85,290.93 L 267.50,296.50 L 266.65,298.59 L 265.11,302.16 L 264.36,303.85 L 263.01,306.67 L 262.35,307.99 L 261.13,310.11 L 260.53,311.08 L 259.40,312.55 L 258.85,313.20 L 257.77,314.07 L 257.24,314.43 L 256.16,314.75 L 255.62,314.85 L 254.51,314.68 L 253.95,314.53 L 252.75,313.92 L 252.24,313.63 L 251.57,312.77 L 251.28,312.32 L 251.06,311.27 L 251.01,310.74 L 251.27,309.66 L 252.20,308.20 L 252.68,307.72 L 253.61,307.21 L 254.06,307.03 L 254.87,307.12 L 255.25,307.24 L 255.90,307.91 L 256.34,308.94 L 256.10,308.70 L 254.84,308.11 L 253.92,308.19 L 253.50,308.42 L 252.70,309.01 L 252.43,309.44 L 252.00,310.40 L 252.00,310.97 L 252.16,312.14 L 252.48,312.48 L 253.27,313.00 L 253.89,313.00 L 255.36,312.53 L 256.12,311.84 L 256.35,311.39 L 256.70,310.45 L 256.67,309.98 L 256.53,309.39 L 256.60,309.54 L 256.81,310.38 L 257.38,311.31 L 257.69,311.64 L 258.44,311.56 L 258.84,311.39 L 259.76,310.31 L 261.31,307.57 L 263.12,303.78 L 257.97,293.14 L 257.27,291.68 L 255.85,288.87 L 255.16,287.51 L 253.88,285.11 L 253.27,283.99 L 252.27,282.27 L 252.05,281.89 L 251.68,281.32 L 251.26,280.75 L 250.89,280.34 L 250.50,279.79 L 250.38,279.54 L 250.58,279.26 L 250.77,279.15 L 251.70,279.05 L 254.10,279.02 M 159.03,284.56 L 159.33,286.50 L 159.46,288.04 L 159.49,288.87 L 159.50,292.26 L 159.33,293.69 L 159.09,297.81 L 159.11,298.97 L 159.15,299.42 L 159.25,300.22 L 159.34,300.43 L 159.58,300.99 L 159.74,301.17 L 160.07,301.44 L 160.30,301.47 L 160.80,301.46 L 161.15,301.36 L 161.91,301.09 L 162.42,300.86 L 164.48,299.26 L 164.93,298.61 L 164.92,298.64 L 164.49,299.29 L 163.46,300.44 L 162.92,300.99 L 161.69,301.91 L 161.06,302.33 L 159.68,303.00 L 158.97,303.29 L 157.49,303.68 L 156.73,303.84 L 155.18,303.94 L 154.40,303.95 L 152.83,303.74 L 152.05,303.60 L 150.50,303.05 L 149.47,302.63 L 147.84,301.48 L 147.09,300.83 L 145.96,299.16 L 145.46,298.25 L 144.91,296.36 L 145.09,296.75 L 145.70,297.89 L 146.08,298.37 L 147.82,300.08 L 148.34,300.40 L 148.56,300.46 L 148.95,300.53 L 149.08,300.45 L 149.75,300.43 L 150.06,300.83 L 150.08,301.19 L 150.14,301.96 L 150.18,302.14 L 150.26,302.37 L 150.30,302.30 L 150.40,302.03 L 150.45,301.73 L 150.56,301.01 L 150.62,300.50 L 150.73,299.38 L 150.79,298.67 L 150.90,297.18 L 150.96,296.31 L 151.07,294.50 L 151.09,294.14 L 151.29,296.78 L 151.38,297.52 L 151.60,298.75 L 152.04,300.07 L 152.38,300.71 L 153.36,301.49 L 153.88,301.80 L 155.04,301.93 L 155.62,301.91 L 156.72,301.38 L 157.25,301.03 L 158.08,299.86 L 158.28,299.47 L 158.62,298.26 L 158.78,297.60 L 159.01,295.98 L 159.22,294.28 L 159.33,290.32 L 159.33,289.34 L 159.26,287.45 L 159.21,286.53 L 159.03,284.87 L 158.93,284.14 M 185.23,278.11 L 186.28,278.22 L 188.37,278.94 L 191.35,280.87 L 191.89,281.34 L 192.83,282.44 L 193.29,283.02 L 194.05,284.29 L 194.77,285.60 L 194.97,286.27 L 194.86,286.02 L 194.16,284.57 L 193.71,283.90 L 192.30,281.97 L 191.50,281.04 L 191.16,280.77 L 190.51,280.37 L 190.25,280.36 L 189.74,280.49 L 189.54,280.77 L 189.16,281.46 L 189.01,282.02 L 188.73,283.29 L 188.63,284.16 L 188.44,286.05 L 188.37,287.22 L 188.26,289.74 L 188.22,291.25 L 188.15,293.89 L 188.15,294.99 L 188.15,297.03 L 188.18,297.85 L 188.26,299.35 L 188.33,299.91 L 188.52,300.92 L 188.65,301.25 L 188.95,301.80 L 189.16,301.92 L 189.60,302.07 L 189.88,302.01 L 190.48,301.81 L 190.84,301.59 L 191.62,301.07 L 192.09,300.72 L 193.59,299.23 L 194.41,298.06 L 194.74,297.40 L 195.32,296.04 L 195.52,295.30 L 195.86,293.81 L 195.93,293.04 L 195.96,290.87 L 195.97,293.03 L 195.92,293.77 L 195.64,295.20 L 194.95,297.22 L 194.65,297.87 L 193.83,299.05 L 193.38,299.62 L 192.30,300.63 L 191.73,301.11 L 190.45,301.93 L 189.79,302.31 L 188.37,302.91 L 187.65,303.19 L 186.15,303.55 L 185.40,303.70 L 183.87,303.81 L 183.11,303.83 L 181.63,303.65 L 180.89,303.53 L 179.50,303.05 L 178.56,302.66 L 176.84,301.21 L 176.02,300.39 L 174.65,298.29 L 174.03,297.18 L 173.99,297.08 L 174.01,297.11 L 174.84,298.55 L 175.35,299.25 L 176.21,300.37 L 176.58,300.79 L 177.28,301.51 L 177.57,301.71 L 178.13,302.00 L 178.37,301.98 L 178.80,301.82 L 178.98,301.57 L 179.32,300.94 L 179.45,300.43 L 179.69,299.30 L 179.79,298.54 L 179.96,296.89 L 180.02,295.86 L 180.11,294.22 L 180.36,297.08 L 180.45,297.77 L 180.66,298.90 L 181.04,300.07 L 181.32,300.60 L 182.33,301.43 L 184.00,302.00 L 184.53,302.00 L 185.67,301.43 L 186.20,301.08 L 186.96,300.07 L 187.15,299.71 L 187.45,298.55 L 187.59,297.90 L 187.78,296.29 L 187.95,294.59 L 187.99,290.57 L 187.96,288.57 L 187.61,284.98 L 187.50,284.17 L 187.21,282.87 L 186.67,281.57 L 186.25,280.99 L 185.12,280.42 L 184.54,280.24 L 183.31,280.41 L 182.72,280.58 L 181.67,281.40 L 180.62,283.28 L 180.50,283.74 L 180.31,284.96 L 180.23,285.62 L 180.22,285.81 L 180.18,285.24 L 180.06,283.57 L 179.95,282.93 L 179.70,281.78 L 179.53,281.39 L 179.16,280.75 L 178.92,280.60 L 178.40,280.43 L 178.09,280.52 L 177.43,280.80 L 177.04,281.10 L 176.22,281.82 L 175.75,282.33 L 174.32,284.16 L 174.48,283.85 L 175.06,282.87 L 176.55,281.24 L 177.33,280.49 L 179.14,279.35 L 180.08,278.85 L 182.09,278.28 L 183.12,278.07 M 89.69,266.23 L 92.87,266.29 L 106.24,266.58 L 109.13,269.82 L 107.59,268.37 L 106.85,267.85 L 106.14,267.38 L 105.83,267.23 L 105.25,267.00 L 105.03,267.00 L 103.23,267.45 L 102.24,268.13 L 101.91,268.56 L 101.38,269.49 L 101.35,269.95 L 101.45,270.74 L 101.38,270.64 L 100.86,270.04 L 99.41,269.16 L 96.61,268.32 L 93.00,267.74 L 93.00,276.29 L 93.01,277.81 L 93.01,278.52 L 93.05,279.67 L 93.07,280.20 L 93.15,281.02 L 93.19,281.39 L 93.33,281.94 L 93.48,282.44 L 94.03,282.84 L 95.37,283.00 L 96.02,283.00 L 97.81,282.39 L 98.72,282.02 L 100.37,280.93 L 100.83,280.56 L 101.21,280.17 L 101.09,280.39 L 100.39,281.11 L 98.94,283.02 L 98.47,284.13 L 98.48,284.57 L 98.67,285.37 L 99.01,285.62 L 99.66,285.91 L 97.21,285.30 L 93.00,284.74 L 93.00,293.23 L 93.05,295.15 L 93.09,296.08 L 93.20,297.67 L 93.26,298.41 L 93.41,299.49 L 93.67,300.33 L 94.00,300.66 L 95.06,300.96 L 95.64,301.04 L 97.04,300.89 L 97.76,300.76 L 99.26,300.19 L 100.00,299.86 L 101.37,298.93 L 101.87,298.53 L 102.62,297.75 L 102.96,297.36 L 103.44,296.50 L 103.64,296.05 L 103.87,295.00 L 104.00,293.12 L 104.00,292.61 L 104.13,293.62 L 103.99,294.84 L 103.79,296.02 L 103.60,296.52 L 103.16,297.44 L 102.84,297.76 L 102.21,299.00 L 102.48,299.87 L 102.96,300.46 L 103.91,301.43 L 104.41,301.66 L 105.35,301.93 L 104.41,302.15 L 103.92,302.24 L 102.77,302.39 L 102.16,302.46 L 100.74,302.57 L 99.99,302.63 L 98.24,302.72 L 95.20,302.84 L 84.50,303.21 L 84.50,303.00 L 87.79,303.00 L 89.50,302.93 L 90.45,302.79 L 90.84,302.67 L 91.56,302.40 L 91.85,302.19 L 92.36,301.75 L 92.55,301.45 L 92.87,300.81 L 92.97,300.40 L 93.13,299.53 L 93.14,299.00 L 93.14,297.87 L 93.09,297.19 L 92.95,295.78 L 92.84,294.95 L 92.56,291.89 L 92.41,289.25 L 92.36,287.75 L 92.22,281.40 L 92.28,278.41 L 92.50,267.55 L 89.74,266.58 L 87.94,266.21 M 204.99,280.37 L 204.98,278.81 L 204.95,276.25 L 204.93,275.05 L 204.86,273.12 L 204.82,272.23 L 204.71,270.83 L 204.65,270.19 L 204.49,269.22 L 204.40,268.79 L 204.18,268.16 L 203.25,267.08 L 202.91,266.88 L 202.66,266.59 L 202.60,266.45 L 202.97,266.27 L 203.24,266.19 L 204.30,266.09 L 206.75,266.03 L 212.00,266.00 L 212.00,278.89 L 212.05,281.79 L 212.09,283.18 L 212.20,285.54 L 212.26,286.63 L 212.41,288.07 L 212.38,288.00 L 212.29,287.42 L 212.12,286.13 L 212.06,285.27 L 211.95,283.38 L 211.90,282.19 L 211.81,279.65 L 211.77,278.11 L 211.62,274.76 L 211.47,272.86 L 211.37,272.07 L 211.15,270.58 L 211.00,269.99 L 210.69,268.89 L 210.49,268.48 L 210.07,267.75 L 209.82,267.50 L 209.28,267.10 L 208.97,267.01 L 208.30,266.91 L 207.91,266.96 L 207.10,267.13 L 206.64,267.31 L 205.78,268.23 L 205.57,268.83 L 205.49,269.26 L 205.34,270.22 L 205.28,270.86 L 205.18,272.26 L 205.14,273.16 L 205.08,275.08 L 205.05,276.28 L 205.02,278.82 L 205.01,280.36 L 205.00,283.61 L 205.00,283.66 M 283.01,295.75 L 283.03,297.48 L 283.05,298.19 L 283.10,299.50 L 283.14,300.01 L 283.23,300.96 L 283.29,301.32 L 283.59,302.45 L 283.84,302.69 L 284.40,303.00 L 283.00,303.00 L 283.00,292.62 L 283.00,294.83 M 297.15,293.58 L 297.25,295.10 L 297.31,295.77 L 297.56,298.18 L 297.72,299.05 L 298.06,300.57 L 298.27,301.05 L 298.72,301.85 L 299.00,302.02 L 299.81,302.52 L 300.15,302.67 L 300.78,302.90 L 301.04,302.93 L 300.39,302.97 L 298.22,303.00 L 297.51,303.00 L 296.52,302.94 L 296.09,302.90 L 295.60,302.75 L 295.42,302.66 L 295.39,302.38 L 295.80,301.80 L 295.99,301.61 L 296.30,300.69 L 296.45,300.15 L 296.68,298.58 L 296.79,297.72 L 296.92,295.57 L 297.00,291.77 L 297.00,290.99 M 240.00,267.21 L 243.50,267.50 L 236.50,266.91 L 236.62,284.07 L 236.67,288.66 L 236.71,291.31 L 236.74,292.44 L 236.81,294.58 L 236.85,295.48 L 236.94,297.16 L 237.00,297.85 L 237.12,299.12 L 237.19,299.62 L 237.35,300.54 L 237.44,300.87 L 237.64,301.47 L 237.75,301.67 L 237.98,302.01 L 238.12,302.09 L 239.04,302.56 L 239.60,302.72 L 240.74,302.98 L 241.20,302.98 L 242.03,302.78 L 242.49,302.41 L 242.68,302.09 L 243.04,301.35 L 243.18,300.81 L 243.44,299.62 L 243.54,298.84 L 243.71,297.14 L 243.77,296.07 L 243.86,293.79 L 243.88,292.41 L 243.89,290.38 L 243.96,292.56 L 244.00,293.68 L 244.10,295.52 L 244.15,296.38 L 244.28,297.75 L 244.35,298.39 L 244.52,299.38 L 244.61,299.83 L 244.83,300.51 L 245.71,301.75 L 246.05,302.01 L 246.26,302.38 L 246.27,302.55 L 245.68,302.76 L 245.26,302.86 L 243.67,302.95 L 243.21,302.97 L 242.06,302.99 L 240.00,303.00 L 239.17,303.00 L 237.79,302.99 L 237.15,302.98 L 236.11,302.96 L 235.63,302.94 L 234.91,302.89 L 234.59,302.86 L 234.14,302.77 L 233.77,302.67 L 233.74,302.34 L 233.83,302.15 L 234.56,301.58 L 235.01,301.26 L 235.62,300.36 L 235.75,300.08 L 235.96,299.33 L 236.05,298.92 L 236.20,297.81 L 236.26,297.20 L 236.36,295.63 L 236.40,294.77 L 236.45,292.63 L 236.47,291.48 L 236.49,288.65 L 236.50,283.54 L 236.50,266.91 M 226.52,297.21 L 227.03,297.92 L 228.00,299.18 L 229.31,300.75 L 231.35,303.00 L 225.10,303.00 L 224.11,302.95 L 225.14,302.86 L 225.93,302.61 L 226.22,302.41 L 226.71,301.95 L 226.85,301.64 L 227.04,300.95 L 227.02,300.52 L 226.92,299.60 L 226.75,299.04 L 226.35,297.87 L 226.03,297.18 L 225.32,295.74 L 224.86,294.91 L 224.56,294.41 M 290.27,298.12 L 290.41,298.88 L 290.80,300.12 L 291.57,301.43 L 291.93,301.79 L 292.28,302.28 L 292.37,302.49 L 292.09,302.75 L 291.85,302.86 L 290.76,302.96 L 288.07,303.00 L 284.81,303.00 L 286.22,302.89 L 287.01,302.69 L 287.35,302.51 L 287.98,302.09 L 288.23,301.78 L 288.71,301.09 L 288.91,300.62 L 289.26,299.59 L 289.40,298.94 L 289.66,297.53 L 289.75,296.66 L 289.91,295.06 M 121.04,295.16 L 121.06,295.87 L 121.12,297.21 L 121.16,297.76 L 121.25,298.78 L 121.32,299.20 L 121.61,300.60 L 121.85,301.02 L 122.38,301.72 L 122.75,301.94 L 123.89,302.46 L 124.57,302.60 L 124.97,302.66 L 123.00,302.75 L 121.95,302.80 L 120.45,302.82 L 119.79,302.82 L 119.04,302.73 L 118.75,302.67 L 118.68,302.45 L 118.72,302.32 L 119.25,301.95 L 119.62,301.73 L 120.15,301.03 L 120.38,300.60 L 120.68,299.20 L 120.75,298.78 L 120.84,297.76 L 120.88,297.21 L 120.94,295.87 L 120.96,295.16 L 120.99,293.46 L 121.00,290.45 L 121.01,293.46 M 302.90,302.59 L 302.88,302.60 L 302.90,302.59 L 302.92,302.58 M 127.05,302.57 L 127.55,302.41 L 128.02,301.94 L 128.17,301.50 L 128.41,300.46 L 128.47,299.65 L 128.57,297.80 L 128.50,302.50 M 221.10,301.82 L 221.42,302.13 L 221.93,302.54 L 221.74,302.46 L 221.30,302.21 L 220.63,301.28 L 219.51,299.03 L 220.48,300.90 M 108.70,300.38 L 108.11,300.82 L 108.00,300.87 L 109.07,300.04 M 304.80,299.52 L 304.75,299.74 L 304.85,299.00 M 112.73,294.65 L 112.58,295.33 L 111.99,296.67 L 111.64,297.34 L 110.65,298.61 L 109.54,299.61 L 110.08,299.08 L 111.61,297.18 L 112.34,295.87 L 112.57,295.20 L 112.75,294.51 M 305.00,294.68 L 304.98,296.57 L 304.96,297.45 L 304.91,298.21 L 304.93,297.64 L 304.97,296.48 L 304.98,295.80 L 305.00,294.37 M 166.41,287.16 L 166.63,287.86 L 166.89,289.32 L 166.99,290.07 L 167.00,291.62 L 166.98,292.41 L 166.72,294.03 L 166.60,294.45 L 166.69,293.83 L 166.90,291.67 L 166.85,290.56 L 166.64,288.35 L 166.39,287.28 L 166.21,286.64 M 224.70,281.98 L 223.40,282.80 L 221.38,284.46 L 220.95,284.85 L 220.37,285.51 L 220.00,286.24 L 220.00,286.42 L 220.27,287.13 L 220.45,287.54 L 221.01,288.62 L 221.32,289.20 L 221.50,289.49 L 218.63,284.98 L 215.84,287.65 L 214.68,288.70 L 214.04,289.19 L 213.78,289.30 L 213.30,289.43 L 213.15,289.36 L 213.29,289.32 L 213.57,289.21 L 214.35,288.70 L 215.16,288.12 L 217.16,286.31 L 218.15,285.37 L 219.82,283.45 L 220.18,283.00 L 220.68,282.24 L 221.00,281.38 L 221.00,281.05 L 220.63,280.38 L 219.75,279.66 L 219.58,279.59 L 219.69,279.46 L 219.82,279.40 L 220.47,279.28 L 220.85,279.23 L 221.93,279.15 L 223.95,279.08 L 229.39,279.00 M 299.93,278.49 L 300.41,278.59 L 301.25,278.94 L 301.66,279.14 L 301.81,279.27 L 301.67,279.21 L 300.99,279.00 L 300.60,279.00 L 298.41,279.39 L 297.90,279.74 L 297.70,280.01 L 297.34,280.61 L 297.22,281.03 L 297.00,281.95 L 296.93,282.55 L 296.83,283.85 L 296.82,284.66 L 296.82,285.59 L 296.69,284.50 L 296.56,283.80 L 296.18,282.98 L 295.34,282.30 L 294.81,282.10 L 293.64,282.42 L 291.84,283.94 L 291.54,284.32 L 291.03,285.47 L 290.80,286.09 L 290.44,287.62 L 290.20,288.79 L 290.48,279.97 L 290.53,280.05 L 290.90,280.17 L 291.12,280.20 L 291.72,280.14 L 294.02,279.34 L 294.94,278.88 L 296.99,278.42 M 100.52,286.00 L 101.61,286.40 L 102.25,287.03 L 102.53,287.48 L 102.97,288.28 L 102.48,287.55 L 101.95,286.94 L 100.38,286.09 L 100.02,286.00 M 147.89,281.10 L 146.93,282.09 L 146.37,282.75 L 145.32,284.32 L 144.76,285.54 L 144.56,286.21 L 144.12,288.11 L 144.14,287.34 L 144.38,285.97 L 144.55,285.33 L 145.19,284.19 L 146.70,282.27 L 147.27,281.62 L 148.12,280.88 M 262.45,285.50 L 262.65,286.03 L 262.28,285.09 L 261.95,284.20 M 158.16,278.66 L 159.41,279.04 L 160.97,280.01 L 159.65,279.58 L 158.87,279.67 L 158.68,280.00 L 158.44,280.86 L 158.50,281.61 L 158.74,283.27 L 158.64,282.85 L 158.10,281.62 L 157.59,281.01 L 156.44,280.32 L 155.86,280.07 L 154.69,280.07 L 154.12,280.16 L 153.12,280.84 L 151.98,282.57 L 151.81,282.99 L 151.55,284.19 L 151.43,284.84 L 151.38,285.30 L 151.38,284.35 L 151.34,283.53 L 151.22,282.02 L 151.12,281.48 L 150.87,280.53 L 150.69,280.26 L 150.29,279.83 L 150.02,279.81 L 149.46,279.89 L 149.10,280.11 L 148.53,280.52 L 149.09,280.08 L 150.36,279.34 L 151.00,279.01 L 152.31,278.56 L 152.96,278.38 L 154.28,278.21 L 155.60,278.11 M 104.76,283.48 L 104.89,283.68 L 105.65,284.22 L 106.88,284.95 L 103.92,283.73 L 104.69,283.26 M 304.10,282.95 L 304.13,283.05 L 304.02,282.69 M 110.64,278.14 L 110.27,278.86 L 109.33,280.11 L 108.82,280.69 L 107.66,281.62 L 106.08,282.41 L 106.99,281.86 L 108.90,280.31 L 110.04,279.01 L 110.50,278.29 L 110.85,277.68 M 86.31,266.29 L 85.98,266.62 L 85.77,267.17 L 85.63,267.86 L 85.56,268.35 L 85.43,269.43 L 85.37,270.10 L 85.25,271.53 L 85.20,272.36 L 85.09,274.10 L 85.04,275.07 L 84.95,277.03 L 84.94,276.36 L 84.85,274.18 L 84.79,273.17 L 84.60,271.57 L 84.49,270.83 L 84.19,269.70 L 84.02,269.18 L 83.58,268.41 L 83.35,268.06 L 82.77,267.54 L 81.72,266.95 L 81.53,266.87 L 81.38,266.73 L 81.35,266.66 L 81.53,266.54 L 81.66,266.49 L 82.16,266.40 L 82.45,266.36 L 83.28,266.30 L 83.74,266.27 L 84.90,266.23 L 85.53,266.22 L 86.77,266.21 M 102.87,273.24 L 103.06,274.94 L 102.97,275.58 L 102.96,274.60 L 102.56,272.80 L 102.43,272.38 M 101.84,271.24 L 101.97,271.49 L 101.70,271.10 M 304.83,287.91 L 304.74,286.99 L 304.55,285.24 L 304.42,284.49 L 304.14,283.11 L 304.41,284.35 L 304.55,285.10 L 304.75,286.85 L 304.84,287.77 L 304.94,289.89 L 305.00,293.54 L 304.94,290.01 M 282.99,288.88 L 282.98,287.93 L 282.94,286.35 L 282.91,285.60 L 282.84,284.37 L 282.80,283.80 L 282.69,282.88 L 282.56,282.02 L 282.16,281.00 L 281.25,280.08 L 280.91,279.88 L 280.65,279.59 L 280.60,279.45 L 280.96,279.27 L 281.22,279.19 L 282.27,279.09 L 284.69,279.03 L 286.12,279.02 L 288.52,279.28 L 289.05,279.36 L 289.82,279.56 L 289.84,279.57 L 288.08,279.77 L 286.55,280.01 L 285.70,280.25 L 285.36,280.43 L 284.72,280.85 L 284.46,281.14 L 284.00,281.79 L 283.83,282.24 L 283.51,283.20 L 283.40,283.83 L 283.21,285.18 L 283.15,286.02 L 283.05,287.82 L 283.03,288.91 L 283.00,291.24 L 283.00,290.88 Z" fill="rgba(126,56,74,1)"/>
<path d="M 252.00,310.97 L 252.00,310.40 L 252.43,309.44 L 252.70,309.01 L 253.50,308.42 L 253.92,308.19 L 254.84,308.11 L 256.10,308.70 L 256.46,309.06 L 256.67,309.98 L 256.70,310.45 L 256.35,311.39 L 256.12,311.84 L 255.36,312.53 L 253.89,313.00 L 253.27,313.00 L 252.48,312.48 L 252.16,312.14 M 84.74,285.31 L 84.77,282.76 L 84.91,278.17 L 84.95,277.08 L 85.04,275.07 L 85.09,274.10 L 85.20,272.36 L 85.25,271.53 L 85.37,270.10 L 85.43,269.43 L 85.56,268.35 L 85.63,267.86 L 85.77,267.17 L 85.98,266.62 L 86.31,266.29 L 87.43,266.11 L 89.74,266.58 L 92.50,267.55 L 92.28,278.41 L 92.22,281.40 L 92.36,287.75 L 92.41,289.25 L 92.56,291.89 L 92.84,294.95 L 92.95,295.78 L 93.09,297.19 L 93.14,297.87 L 93.14,299.00 L 93.13,299.53 L 92.97,300.40 L 92.87,300.81 L 92.55,301.45 L 92.36,301.75 L 91.85,302.19 L 91.56,302.40 L 90.84,302.67 L 90.45,302.79 L 89.50,302.93 L 87.79,303.00 L 84.50,303.00 L 84.74,285.31 M 122.75,301.94 L 122.38,301.72 L 121.85,301.02 L 121.61,300.60 L 121.32,299.20 L 121.25,298.78 L 121.16,297.76 L 121.12,297.21 L 121.06,295.87 L 121.04,295.16 L 121.01,293.46 L 121.00,290.45 L 121.00,280.00 L 124.44,280.00 L 125.39,280.00 L 127.06,280.31 L 127.43,280.41 L 128.01,280.64 L 128.53,281.05 L 128.64,281.23 L 128.97,281.41 L 129.16,281.48 L 129.64,281.44 L 131.65,280.49 L 132.27,280.09 L 133.52,279.57 L 134.14,279.36 L 135.35,279.19 L 135.94,279.15 L 137.02,279.29 L 137.54,279.39 L 138.42,279.79 L 138.83,280.02 L 139.43,280.63 L 139.68,280.96 L 139.93,281.75 L 140.00,282.17 L 139.80,283.09 L 138.94,284.57 L 138.67,284.89 L 138.22,285.30 L 137.99,285.46 L 137.52,285.53 L 137.27,285.52 L 136.64,285.26 L 135.35,284.49 L 134.90,284.20 L 134.12,283.81 L 133.75,283.64 L 133.06,283.51 L 130.99,284.01 L 130.47,284.28 L 129.77,284.96 L 129.46,285.37 L 129.07,286.77 L 128.99,287.19 L 128.87,288.27 L 128.81,288.86 L 128.74,290.32 L 128.70,291.11 L 128.65,293.03 L 128.59,296.50 L 128.57,297.80 L 128.47,299.65 L 128.41,300.46 L 128.17,301.50 L 128.02,301.94 L 127.55,302.41 L 126.50,302.74 L 125.95,302.81 L 124.57,302.60 L 123.89,302.46 M 205.00,285.53 L 205.00,283.61 L 205.01,280.36 L 205.02,278.82 L 205.05,276.28 L 205.08,275.08 L 205.14,273.16 L 205.18,272.26 L 205.28,270.86 L 205.34,270.22 L 205.49,269.26 L 205.57,268.83 L 205.78,268.23 L 206.64,267.31 L 207.10,267.13 L 207.91,266.96 L 208.30,266.91 L 208.97,267.01 L 209.28,267.10 L 209.82,267.50 L 210.07,267.75 L 210.49,268.48 L 210.69,268.89 L 211.00,269.99 L 211.15,270.58 L 211.37,272.07 L 211.47,272.86 L 211.62,274.76 L 211.77,278.11 L 211.81,279.65 L 211.90,282.19 L 211.95,283.38 L 212.06,285.27 L 212.12,286.13 L 212.29,287.42 L 212.38,288.00 L 212.63,288.75 L 212.76,289.07 L 213.11,289.35 L 213.30,289.43 L 213.78,289.30 L 214.04,289.19 L 214.68,288.70 L 215.84,287.65 L 218.63,284.98 L 223.23,292.22 L 223.85,293.19 L 224.86,294.91 L 225.32,295.74 L 226.03,297.18 L 226.35,297.87 L 226.75,299.04 L 226.92,299.60 L 227.02,300.52 L 227.04,300.95 L 226.85,301.64 L 226.71,301.95 L 226.22,302.41 L 225.93,302.61 L 225.14,302.86 L 223.62,303.00 L 223.18,303.00 L 222.43,302.80 L 222.07,302.66 L 221.42,302.13 L 221.10,301.82 L 220.48,300.90 L 219.51,299.03 L 218.99,297.86 L 217.83,295.90 L 217.24,294.99 L 216.06,293.64 L 215.47,293.06 L 214.38,292.45 L 212.99,292.51 L 212.82,292.61 L 212.56,293.13 L 212.43,293.44 L 212.26,294.31 L 212.18,297.85 L 212.50,302.50 L 208.75,302.81 L 205.00,303.12 L 205.00,285.53 M 238.12,302.09 L 237.98,302.01 L 237.75,301.67 L 237.64,301.47 L 237.44,300.87 L 237.35,300.54 L 237.19,299.62 L 237.12,299.12 L 237.00,297.85 L 236.94,297.16 L 236.85,295.48 L 236.81,294.58 L 236.74,292.44 L 236.71,291.31 L 236.67,288.66 L 236.62,284.07 L 236.50,266.91 L 240.00,267.21 L 243.50,267.50 L 243.80,282.00 L 243.84,284.11 L 243.88,287.76 L 243.90,289.49 L 243.88,292.41 L 243.86,293.79 L 243.77,296.07 L 243.71,297.14 L 243.54,298.84 L 243.44,299.62 L 243.18,300.81 L 243.04,301.35 L 242.68,302.09 L 242.49,302.41 L 242.03,302.78 L 241.20,302.98 L 240.74,302.98 L 239.60,302.72 L 239.04,302.56 M 283.00,292.62 L 283.00,291.24 L 283.03,288.91 L 283.05,287.82 L 283.15,286.02 L 283.21,285.18 L 283.40,283.83 L 283.51,283.20 L 283.83,282.24 L 284.00,281.79 L 284.46,281.14 L 284.72,280.85 L 285.36,280.43 L 285.70,280.25 L 286.55,280.01 L 288.08,279.77 L 290.50,279.50 L 290.16,290.00 L 290.11,291.37 L 289.99,293.71 L 289.93,294.82 L 289.75,296.66 L 289.66,297.53 L 289.40,298.94 L 289.26,299.59 L 288.91,300.62 L 288.71,301.09 L 288.23,301.78 L 287.98,302.09 L 287.35,302.51 L 287.01,302.69 L 286.22,302.89 L 284.81,303.00 L 284.40,303.00 L 283.84,302.69 L 283.59,302.45 L 283.29,301.32 L 283.23,300.96 L 283.14,300.01 L 283.10,299.50 L 283.05,298.19 L 283.03,297.48 L 283.01,295.75 L 283.00,294.83 M 299.00,302.02 L 298.72,301.85 L 298.27,301.05 L 298.06,300.57 L 297.72,299.05 L 297.56,298.18 L 297.31,295.77 L 297.25,295.10 L 297.15,293.58 L 297.00,290.99 L 296.93,289.66 L 296.85,287.44 L 296.82,286.39 L 296.82,284.66 L 296.83,283.85 L 296.93,282.55 L 297.00,281.95 L 297.22,281.03 L 297.34,280.61 L 297.70,280.01 L 297.90,279.74 L 298.41,279.39 L 300.60,279.00 L 300.99,279.00 L 301.67,279.21 L 302.00,279.35 L 302.58,279.85 L 302.86,280.13 L 303.34,280.93 L 303.57,281.37 L 303.95,282.47 L 304.13,283.06 L 304.42,284.49 L 304.55,285.24 L 304.74,286.99 L 304.83,287.91 L 304.94,290.01 L 305.00,293.54 L 305.00,294.37 L 304.98,295.80 L 304.97,296.48 L 304.93,297.64 L 304.88,298.74 L 304.68,300.26 L 304.56,300.92 L 304.20,301.73 L 303.42,302.39 L 302.90,302.59 L 302.10,302.83 L 301.73,302.92 L 301.10,302.93 L 300.78,302.90 L 300.15,302.67 L 299.81,302.52 M 102.96,300.46 L 102.48,299.87 L 102.21,299.00 L 102.84,297.76 L 103.16,297.44 L 103.60,296.52 L 103.79,296.02 L 103.99,294.84 L 104.13,293.62 L 103.79,290.92 L 103.66,290.27 L 103.27,289.05 L 103.06,288.46 L 102.53,287.48 L 102.25,287.03 L 101.61,286.40 L 100.52,286.00 L 99.86,286.00 L 99.01,285.62 L 98.67,285.37 L 98.48,284.57 L 98.47,284.13 L 98.94,283.02 L 100.39,281.11 L 101.09,280.39 L 102.08,278.64 L 102.50,277.74 L 102.93,275.86 L 103.06,274.94 L 102.87,273.24 L 101.84,271.24 L 101.47,270.87 L 101.35,269.95 L 101.38,269.49 L 101.91,268.56 L 102.24,268.13 L 103.23,267.45 L 105.03,267.00 L 105.25,267.00 L 105.83,267.23 L 106.14,267.38 L 106.85,267.85 L 107.59,268.37 L 109.17,269.85 L 109.93,270.62 L 111.15,272.18 L 111.41,272.55 L 111.77,273.21 L 112.00,274.01 L 112.00,274.66 L 111.59,276.10 L 111.34,276.82 L 110.50,278.29 L 110.04,279.01 L 108.90,280.31 L 106.99,281.86 L 103.92,283.73 L 107.00,285.00 L 107.82,285.34 L 109.21,286.18 L 109.86,286.63 L 110.92,287.66 L 111.41,288.19 L 112.13,289.36 L 112.44,289.96 L 112.81,291.23 L 112.95,291.87 L 112.96,293.20 L 112.92,293.86 L 112.57,295.20 L 112.34,295.87 L 111.61,297.18 L 110.08,299.08 L 109.26,299.90 L 107.85,300.99 L 107.18,301.46 L 106.00,301.85 L 105.43,301.96 L 104.41,301.66 L 103.91,301.43 M 150.08,301.19 L 150.06,300.83 L 149.75,300.43 L 149.08,300.45 L 148.95,300.53 L 148.56,300.46 L 148.34,300.40 L 147.82,300.08 L 146.08,298.37 L 145.70,297.89 L 145.09,296.75 L 144.81,296.15 L 144.40,294.82 L 144.03,293.47 L 143.89,290.50 L 143.92,289.02 L 144.56,286.21 L 144.76,285.54 L 145.32,284.32 L 146.37,282.75 L 146.93,282.09 L 147.89,281.10 L 148.35,280.66 L 149.10,280.11 L 149.46,279.89 L 150.02,279.81 L 150.29,279.83 L 150.69,280.26 L 150.87,280.53 L 151.12,281.48 L 151.22,282.02 L 151.34,283.53 L 151.38,284.35 L 151.38,286.44 L 151.27,290.25 L 151.22,291.39 L 151.12,293.48 L 151.07,294.50 L 150.96,296.31 L 150.90,297.18 L 150.79,298.67 L 150.73,299.38 L 150.62,300.50 L 150.56,301.01 L 150.45,301.73 L 150.40,302.03 L 150.30,302.30 L 150.26,302.37 L 150.18,302.14 L 150.14,301.96 M 159.34,300.43 L 159.25,300.22 L 159.15,299.42 L 159.11,298.97 L 159.09,297.81 L 159.33,293.69 L 159.50,292.26 L 159.49,288.87 L 159.46,288.04 L 159.33,286.50 L 159.03,284.56 L 158.75,283.33 L 158.50,281.61 L 158.44,280.86 L 158.68,280.00 L 158.87,279.67 L 159.65,279.58 L 161.49,280.18 L 162.32,280.56 L 163.70,281.82 L 164.34,282.52 L 165.34,284.28 L 165.79,285.20 L 166.39,287.28 L 166.64,288.35 L 166.85,290.56 L 166.90,291.67 L 166.69,293.83 L 166.53,294.89 L 165.90,296.82 L 165.54,297.74 L 164.48,299.26 L 162.42,300.86 L 161.91,301.09 L 161.15,301.36 L 160.80,301.46 L 160.30,301.47 L 160.07,301.44 L 159.74,301.17 L 159.58,300.99 M 175.35,299.25 L 174.84,298.55 L 174.01,297.11 L 173.62,296.38 L 173.06,294.90 L 172.56,293.42 L 172.37,290.45 L 172.38,289.72 L 172.62,288.27 L 172.77,287.56 L 173.27,286.17 L 173.55,285.48 L 174.31,284.18 L 175.75,282.33 L 176.22,281.82 L 177.04,281.10 L 177.43,280.80 L 178.09,280.52 L 178.40,280.43 L 178.92,280.60 L 179.16,280.75 L 179.53,281.39 L 179.70,281.78 L 179.95,282.93 L 180.06,283.57 L 180.18,285.24 L 180.24,286.15 L 180.26,288.37 L 180.18,292.34 L 180.14,293.66 L 180.02,295.86 L 179.96,296.89 L 179.79,298.54 L 179.69,299.30 L 179.45,300.43 L 179.32,300.94 L 178.98,301.57 L 178.80,301.82 L 178.37,301.98 L 178.13,302.00 L 177.57,301.71 L 177.28,301.51 L 176.58,300.79 L 176.21,300.37 M 188.22,291.25 L 188.26,289.74 L 188.37,287.22 L 188.44,286.05 L 188.63,284.16 L 188.73,283.29 L 189.01,282.02 L 189.16,281.46 L 189.54,280.77 L 189.74,280.49 L 190.25,280.36 L 190.51,280.37 L 191.16,280.77 L 191.50,281.04 L 192.30,281.97 L 193.71,283.90 L 194.16,284.57 L 194.86,286.02 L 195.18,286.76 L 195.61,288.31 L 195.98,289.87 L 195.93,293.04 L 195.86,293.81 L 195.52,295.30 L 195.32,296.04 L 194.74,297.40 L 194.41,298.06 L 193.59,299.23 L 192.09,300.72 L 191.62,301.07 L 190.84,301.59 L 190.48,301.81 L 189.88,302.01 L 189.60,302.07 L 189.16,301.92 L 188.95,301.80 L 188.65,301.25 L 188.52,300.92 L 188.33,299.91 L 188.26,299.35 L 188.18,297.85 L 188.15,297.03 L 188.15,294.99 L 188.15,293.89 M 257.68,292.51 L 257.04,291.20 L 255.86,288.75 L 255.30,287.57 L 254.38,285.54 L 253.95,284.60 L 253.37,283.22 L 253.25,282.93 L 253.10,282.50 L 253.00,282.13 L 253.00,281.89 L 253.44,281.14 L 254.49,280.01 L 255.03,279.56 L 256.37,279.23 L 257.07,279.15 L 258.47,279.46 L 259.16,279.68 L 260.30,280.54 L 261.36,282.30 L 261.44,282.62 L 261.72,283.51 L 261.88,283.99 L 262.28,285.09 L 263.66,288.56 L 264.13,289.64 L 264.92,291.49 L 265.09,291.89 L 265.33,292.49 L 265.53,293.00 L 265.57,293.14 L 265.86,293.89 L 266.47,295.31 L 266.71,295.86 L 266.71,297.29 L 266.64,298.02 L 266.15,299.48 L 265.86,300.18 L 265.06,301.26 L 263.70,302.00 L 263.61,302.00 L 263.34,301.81 L 263.19,301.68 L 262.82,301.25 L 262.42,300.77 L 261.38,299.21 L 260.84,298.35 L 259.61,296.19 L 258.98,295.06 Z" fill="rgba(169,20,52,1)"/>
</g>
</svg>